<svg width="47" height="32" viewBox="0 0 47 32" fill="none" xmlns="http://www.w3.org/2000/svg">
<path d="M46.5712 29.2566C46.5712 29.6167 46.5003 29.9733 46.3625 30.306C46.2248 30.6387 46.0228 30.941 45.7683 31.1957C45.5137 31.4503 45.2115 31.6523 44.8789 31.7901C44.5463 31.9279 44.1899 31.9989 43.8299 31.9989H2.93615C2.57615 31.9989 2.21968 31.9279 1.88709 31.7901C1.5545 31.6523 1.2523 31.4503 0.99774 31.1957C0.743184 30.941 0.54126 30.6387 0.403495 30.306C0.265731 29.9733 0.194824 29.6167 0.194824 29.2566L0.194824 2.74718C0.194824 2.01988 0.483641 1.32236 0.99774 0.808084C1.51184 0.293804 2.2091 0.00488281 2.93615 0.00488281H43.8299C44.1899 0.00488281 44.5463 0.0758175 44.8789 0.213631C45.2115 0.351444 45.5137 0.553439 45.7683 0.808084C46.0228 1.06273 46.2248 1.36504 46.3625 1.69775C46.5003 2.03046 46.5712 2.38705 46.5712 2.74718V29.2566Z" fill="#306FC5"/>
<path opacity="0.15" d="M2.14419 29.2566V2.74718C2.14419 2.01988 2.43301 1.32236 2.94711 0.808084C3.4612 0.293804 4.15847 0.00488281 4.88552 0.00488281H2.93615C2.2091 0.00488281 1.51184 0.293804 0.99774 0.808084C0.483641 1.32236 0.194824 2.01988 0.194824 2.74718L0.194824 29.2566C0.194824 29.6167 0.265731 29.9733 0.403495 30.306C0.54126 30.6387 0.743184 30.941 0.99774 31.1957C1.2523 31.4503 1.5545 31.6523 1.88709 31.7901C2.21968 31.9279 2.57615 31.9989 2.93615 31.9989H4.88552C4.15854 31.9986 3.46141 31.7096 2.94736 31.1954C2.43331 30.6812 2.14442 29.9838 2.14419 29.2566Z" fill="#202121"/>
<path d="M6.95117 12.8082H8.33559L7.64252 11.0439L6.95117 12.8082Z" fill="white"/>
<path d="M14.3203 18.7305V19.5494H16.6506V20.4319H14.3203V21.3781H16.9L18.0969 20.0543L16.9636 18.7313L14.3203 18.7305Z" fill="white"/>
<path d="M32.5224 11.0439L31.7666 12.8082H33.2155L32.5224 11.0439Z" fill="white"/>
<path d="M21.0601 21.8813V18.29L19.4263 20.0543L21.0601 21.8813Z" fill="white"/>
<path d="M24.1455 19.2973C24.1281 19.1305 24.0455 18.9773 23.9156 18.8711C23.7858 18.7649 23.6193 18.7144 23.4524 18.7305H22.1299V19.8642H23.516C23.8935 19.8642 24.1455 19.6758 24.1455 19.2973Z" fill="white"/>
<path d="M28.5549 19.7359C28.6215 19.6847 28.6739 19.6172 28.7071 19.54C28.7402 19.4627 28.7529 19.3782 28.7441 19.2946C28.7747 19.2108 28.7722 19.1185 28.737 19.0364C28.7018 18.9544 28.6367 18.8889 28.5549 18.8533C28.3932 18.7974 28.2215 18.776 28.051 18.7905H26.7913V19.7987H28.051C28.2215 19.8132 28.3931 19.7918 28.5549 19.7359Z" fill="white"/>
<path d="M37.6199 9.40726V10.1634L37.2424 9.40726H34.2861V10.1634L33.9077 9.40726H29.8809C29.2713 9.39133 28.6666 9.52108 28.1172 9.78575V9.40726H25.2796V9.78575C24.9383 9.52126 24.5139 9.38708 24.0826 9.40726H13.9428L13.2498 10.9823L12.5567 9.40726H9.345V10.1634L9.03028 9.40726H6.25886L4.99912 12.368L3.55107 15.5817L3.52441 15.6445H6.80317L6.82639 15.5817L7.20474 14.6355H8.02335L8.40084 15.6437H12.0536V14.8875L12.3684 15.6437H14.1948L14.5095 14.8875V15.6437H23.2597V14.0093H23.3861C23.5117 14.0093 23.5117 14.0093 23.5117 14.1985V15.5843H28.0467V15.2067C28.5761 15.4636 29.1583 15.5929 29.7467 15.5843H31.6385L32.016 14.5762H32.8973L33.2748 15.5843H36.9319V14.6381L37.4995 15.5843H40.4575V9.40726H37.6199ZM16.2688 14.7H15.2628V11.2343L15.2 11.3788L13.7382 14.7017H12.8095L11.2978 11.236V14.7017H9.15754L8.71642 13.7555H6.57358L6.13246 14.7017H5.02492L6.8883 10.2915H8.46275L10.2264 14.5125V10.2915H11.8954L11.9255 10.3543L12.7201 12.0842L13.291 13.3805L13.3108 13.3151L14.5705 10.2907H16.2714V14.7009L16.2688 14.7ZM20.6147 11.2343H18.1623V12.0532H20.5554V12.9341H18.1623V13.8166H20.619V14.7628H17.0935V10.2898H20.619V11.236L20.6147 11.2343ZM25.1068 12.8592H25.1128C25.1351 12.8827 25.1557 12.9077 25.1747 12.9341C25.3275 13.1495 25.4057 13.4089 25.3974 13.673V13.691C25.3974 13.691 25.3974 13.697 25.3974 13.7013C25.3974 13.7056 25.3974 13.7013 25.3974 13.7065C25.3974 13.7409 25.3974 13.777 25.3974 13.8149V14.6966H24.4636V14.1925C24.4924 13.8862 24.4264 13.5783 24.2744 13.3108C24.2214 13.2568 24.1583 13.2139 24.0886 13.1844C23.9056 13.1202 23.7102 13.0993 23.5177 13.1233H22.3818V14.6983H21.3112V10.2881H23.7051C24.1344 10.2373 24.5695 10.3026 24.9649 10.4773C25.1299 10.5794 25.2639 10.7246 25.3524 10.8973C25.4409 11.0699 25.4805 11.2635 25.467 11.4571C25.4697 11.7036 25.3996 11.9453 25.2654 12.1521C25.1312 12.3588 24.939 12.5213 24.7129 12.6192C24.8653 12.6599 25.0032 12.7424 25.1111 12.8575L25.1068 12.8592ZM27.2272 14.7H26.161V10.2898H27.2324L27.2272 14.7ZM39.509 14.7H38.128L36.1125 11.3608V14.1332L36.1056 14.1263V14.7026H35.0402H33.9713L33.5939 13.7564H31.3882L31.0107 14.7645H29.8138C29.5216 14.7979 29.2257 14.7627 28.9496 14.6617C28.6734 14.5607 28.4246 14.3967 28.2229 14.1827C28.0211 13.9687 27.8721 13.7106 27.7874 13.4289C27.7028 13.1472 27.685 12.8497 27.7354 12.5599C27.6995 11.9219 27.9014 11.2932 28.3021 10.7956C28.5129 10.6033 28.7626 10.4587 29.0343 10.3717C29.306 10.2847 29.5933 10.2574 29.8766 10.2915H30.8843V11.2378H29.8809C29.5858 11.2143 29.293 11.3045 29.0622 11.4898C28.837 11.7757 28.725 12.1346 28.7475 12.4979C28.7223 12.6885 28.7373 12.8823 28.7915 13.0668C28.8457 13.2512 28.9379 13.4222 29.0622 13.5689C29.1644 13.6602 29.2841 13.7297 29.4141 13.7731C29.5441 13.8164 29.6816 13.8327 29.8181 13.8209H30.2592L31.7073 10.356H33.2817L35.0402 14.5684V10.3535H36.6146L38.441 13.4407V10.3535H39.5116V14.7009L39.509 14.7Z" fill="white"/>
<path d="M24.2133 12.124C24.2323 12.1037 24.2488 12.0812 24.2623 12.0569C24.348 11.9144 24.3785 11.7455 24.3483 11.582C24.3467 11.5626 24.3435 11.5433 24.3388 11.5244C24.3388 11.5192 24.3388 11.5149 24.3388 11.5098C24.3237 11.4627 24.2989 11.4193 24.2661 11.3824C24.2332 11.3455 24.1929 11.316 24.1479 11.2956C23.9861 11.2399 23.8145 11.2186 23.644 11.2328H22.3843V12.2409H23.644C23.8145 12.2554 23.9862 12.234 24.1479 12.1781C24.1667 12.1679 24.1841 12.1552 24.1995 12.1403L24.2133 12.124Z" fill="white"/>
<path d="M43.2298 20.9996C43.2308 20.5799 43.1223 20.1672 42.9151 19.8022V16.9636V16.7743H39.8823C39.5639 16.8199 39.2636 16.9503 39.0129 17.1519V16.7743H36.116C35.6655 16.7546 35.2216 16.8877 34.8562 17.1519V16.7743H29.6917V17.1519C29.2784 16.8898 28.7956 16.7582 28.3065 16.7743H24.9056V17.1519C24.4754 16.8743 23.9676 16.7419 23.4567 16.7743H19.6783L18.7961 17.7205L17.9775 16.7743H12.3091V23.1397H17.8519L18.7625 22.2288L19.5519 23.1397H23.0775V21.6903H23.3922C23.8825 21.7208 24.3742 21.6566 24.8402 21.5011V23.2025H27.6779V21.5682H27.8034C27.9926 21.5682 27.9926 21.5682 27.9926 21.7574V23.2068H36.5579C37.0684 23.2338 37.5747 23.1015 38.0069 22.8284V23.2068H40.7155C41.2388 23.2442 41.7622 23.1352 42.2272 22.892C42.5192 22.7113 42.7628 22.4622 42.9371 22.1662C43.1113 21.8702 43.2109 21.5362 43.2272 21.1931C43.2272 21.1716 43.2332 21.1493 43.235 21.1278C43.2281 21.0813 43.2298 21.0409 43.2298 20.9996ZM23.3905 20.622H22.1307V22.2563H20.0601L18.8563 20.8697V20.874L18.7978 20.806L17.4125 22.2555H13.3753V17.8513H17.4684L18.5863 19.0771L18.821 19.3351L18.8528 19.3024L20.1754 17.8539H23.5134C23.8386 17.8089 24.1698 17.8629 24.4639 18.009C24.7579 18.1551 25.0011 18.3864 25.1618 18.6728C25.1976 18.8168 25.2152 18.9648 25.2143 19.1132C25.216 20.3691 24.3346 20.622 23.3896 20.622H23.3905ZM29.6883 20.5592C29.8319 20.807 29.8979 21.0923 29.8775 21.3781V22.2598H28.8069V21.6929C28.8426 21.3859 28.7761 21.0757 28.6177 20.8103C28.4922 20.622 28.2402 20.622 27.8619 20.622H26.7285V22.2563H25.658V17.7833H28.0511C28.4802 17.7384 28.9138 17.8035 29.3108 17.9726C29.4881 18.073 29.6347 18.22 29.7345 18.3977C29.8344 18.5753 29.8838 18.777 29.8775 18.9807C29.8866 19.2332 29.8194 19.4826 29.6845 19.6962C29.5496 19.9099 29.3535 20.0778 29.1216 20.1781C29.3468 20.2398 29.5458 20.3733 29.6883 20.5583V20.5592ZM34.0342 18.7313H31.5775V19.5502H33.9705V20.4319H31.5775V21.3144H34.0342V22.2606H30.5086V17.7876H34.0342V18.7313ZM36.6792 22.2581H34.6662V21.3118H36.6818C36.7601 21.325 36.8403 21.3205 36.9166 21.2986C36.993 21.2767 37.0634 21.238 37.1229 21.1854C37.2035 21.1004 37.2484 20.9877 37.2484 20.8706C37.2484 20.7534 37.2035 20.6407 37.1229 20.5557C37.0178 20.4663 36.8822 20.421 36.7445 20.4293C35.7367 20.3665 34.5398 20.4293 34.5398 19.0435C34.5398 18.4139 34.9173 17.7205 36.0515 17.7205H38.1298V18.7975H36.1779C36.0279 18.7825 35.8766 18.8041 35.7368 18.8603C35.6112 18.9231 35.6112 19.0495 35.6112 19.1751C35.6112 19.3644 35.7367 19.4271 35.8631 19.4899C35.982 19.5412 36.1116 19.5628 36.2406 19.5528H36.8073C37.022 19.532 37.2387 19.5548 37.4444 19.6199C37.65 19.6849 37.8405 19.7908 38.0043 19.9312C38.2304 20.1925 38.3435 20.5328 38.319 20.8774C38.3164 21.8185 37.7497 22.2598 36.6792 22.2598V22.2581ZM42.0965 21.8168C41.7308 22.1322 41.2557 22.2907 40.774 22.2581H38.7593V21.3118H40.7714C40.8497 21.3251 40.93 21.3206 41.0063 21.2987C41.0826 21.2768 41.1531 21.2381 41.2125 21.1854C41.2933 21.1005 41.3383 20.9878 41.3383 20.8706C41.3383 20.7534 41.2933 20.6406 41.2125 20.5557C41.1078 20.4663 40.9725 20.421 40.835 20.4293C39.8272 20.3665 38.6303 20.4293 38.6303 19.0435C38.6266 18.7166 38.7472 18.4004 38.9676 18.159C39.1881 17.9175 39.4919 17.7688 39.8178 17.7429C39.9252 17.7277 40.0335 17.7199 40.1419 17.7197H42.2203V18.7975H40.2675C40.1178 18.7826 39.9668 18.8041 39.8272 18.8603C39.7482 18.9463 39.7032 19.0583 39.7008 19.1751C39.7008 19.3644 39.7636 19.4271 39.9528 19.4899C40.0716 19.5413 40.2012 19.5628 40.3303 19.5528H40.8969C41.1258 19.5468 41.3539 19.5808 41.5711 19.6534C41.7911 19.7297 41.9878 19.8615 42.1422 20.0359C42.2966 20.2104 42.4035 20.4217 42.4525 20.6495C42.4651 20.7243 42.4717 20.7999 42.4723 20.8757C42.477 21.0502 42.446 21.2239 42.3812 21.386C42.3165 21.5481 42.2193 21.6953 42.0956 21.8185L42.0965 21.8168Z" fill="white"/>
</svg>
