<svg width="389" height="493" viewBox="0 0 389 493" fill="none" xmlns="http://www.w3.org/2000/svg">
<g clip-path="url(#clip0_368_84)">
<g opacity="0.1">
<path d="M312.851 338.109V356.027V456.601H293.785V357.043H257.487V338.109H312.851Z" fill="#930D19"/>
<path d="M334.128 357.043C339.356 357.043 343.595 352.804 343.595 347.576C343.595 342.348 339.356 338.109 334.128 338.109C328.9 338.109 324.661 342.348 324.661 347.576C324.661 352.804 328.9 357.043 334.128 357.043Z" fill="#930D19"/>
<path d="M293.766 545.698C255.586 543.965 219.545 527.578 193.14 499.947C166.735 472.316 152 435.568 152 397.349C152 359.13 166.735 322.383 193.14 294.752C219.545 267.121 255.586 250.734 293.766 249C293.766 250.321 293.766 267.716 293.766 268.1C260.634 269.799 229.419 284.157 206.569 308.209C183.719 332.261 170.978 364.17 170.978 397.346C170.978 430.522 183.719 462.43 206.569 486.482C229.419 510.534 260.634 524.893 293.766 526.592C293.752 530.032 293.752 544.513 293.766 545.698Z" fill="#930D19"/>
<path d="M312.854 526.2C344.906 523.14 374.667 508.243 396.325 484.418C417.983 460.593 429.984 429.551 429.984 397.353C429.984 365.155 417.983 334.113 396.325 310.288C374.667 286.463 344.906 271.567 312.854 268.506C312.854 267.861 312.854 249.957 312.854 249.355C349.982 252.444 384.593 269.375 409.822 296.789C435.051 324.204 449.054 360.1 449.054 397.356C449.054 434.613 435.051 470.509 409.822 497.923C384.593 525.338 349.982 542.269 312.854 545.357C312.87 543.7 312.87 528.268 312.854 526.2Z" fill="#930D19"/>
</g>
</g>
<defs>
<clipPath id="clip0_368_84">
<rect width="389" height="493" fill="white"/>
</clipPath>
</defs>
</svg>
