<?xml version="1.0" encoding="UTF-8"?>
<svg id="Layer_1" data-name="Layer 1" xmlns="http://www.w3.org/2000/svg" version="1.1" viewBox="0 0 20 20">
  <defs>
    <style>
      .cls-1 {
        fill: #000;
        stroke-width: 0px;
      }
    </style>
  </defs>
  <path class="cls-1" d="M10,7c-.8,0-1.6.3-2.1.9-.6.6-.9,1.3-.9,2.1s.3,1.6.9,2.1,1.3.9,2.1.9,1.6-.3,2.1-.9.9-1.3.9-2.1-.3-1.6-.9-2.1c-.6-.6-1.3-.9-2.1-.9ZM10,5c1.3,0,2.6.5,3.5,1.5.9.9,1.5,2.2,1.5,3.5s-.5,2.6-1.5,3.5c-.9.9-2.2,1.5-3.5,1.5s-2.6-.5-3.5-1.5c-.9-.9-1.5-2.2-1.5-3.5s.5-2.6,1.5-3.5c.9-.9,2.2-1.5,3.5-1.5ZM16.5,4.7c0,.3-.1.6-.4.9-.2.2-.6.4-.9.4s-.6-.1-.9-.4c-.2-.2-.4-.6-.4-.9s.1-.6.4-.9.6-.4.9-.4.6.1.9.4c.2.2.4.6.4.9ZM10,2c-2.5,0-2.9,0-4,0-.8,0-1.3.1-1.8.3-.4.1-.8.4-1.1.7-.3.3-.6.7-.7,1.1-.2.5-.3,1-.3,1.8,0,1.1,0,1.5,0,4s0,2.9,0,4c0,.8.1,1.3.3,1.8.2.4.4.7.7,1.1.3.3.6.5,1.1.7.5.2,1,.3,1.8.3,1.1,0,1.5,0,4,0s2.9,0,4,0c.8,0,1.3-.1,1.8-.3.4-.2.8-.4,1.1-.7.3-.3.5-.6.7-1.1.2-.5.3-1,.3-1.8,0-1.1,0-1.5,0-4s0-2.9,0-4c0-.8-.1-1.3-.3-1.8-.2-.4-.4-.8-.7-1.1-.3-.3-.7-.6-1.1-.7-.5-.2-1-.3-1.8-.3-1.1,0-1.5,0-4,0M10,0C12.7,0,13.1,0,14.1,0c1.1,0,1.8.2,2.4.5.7.3,1.2.6,1.8,1.2.5.5.9,1.1,1.2,1.8.2.6.4,1.4.5,2.4,0,1.1,0,1.4,0,4.1s0,3.1,0,4.1c0,1.1-.2,1.8-.5,2.4-.3.7-.6,1.3-1.2,1.8-.5.5-1.1.9-1.8,1.2-.6.2-1.4.4-2.4.5-1.1,0-1.4,0-4.1,0s-3.1,0-4.1,0c-1.1,0-1.8-.2-2.4-.5-.7-.3-1.3-.6-1.8-1.2-.5-.5-.9-1.1-1.2-1.8-.2-.6-.4-1.4-.5-2.4,0-1.1,0-1.4,0-4.1s0-3.1,0-4.1c0-1.1.2-1.8.5-2.4.3-.7.6-1.3,1.2-1.8.5-.5,1.1-.9,1.8-1.2.6-.2,1.4-.4,2.4-.5C6.9,0,7.3,0,10,0"/>
</svg>