<svg width="200" height="44" viewBox="0 0 200 44" fill="none" xmlns="http://www.w3.org/2000/svg">
<g clip-path="url(#clip0_367_42)">
<path d="M127.01 28.9238V23.5076H121.61V28.9238H118.955V15.0762H121.61V20.8137H127.01V15.0762H129.664V28.9238H127.01Z" fill="white"/>
<path d="M138.934 29.1507C138.04 29.1662 137.153 28.9908 136.332 28.6363C135.511 28.2817 134.775 27.7561 134.173 27.0945C132.937 25.6854 132.255 23.8747 132.255 22C132.255 20.1253 132.937 18.3146 134.173 16.9055C134.784 16.2564 135.522 15.7391 136.341 15.3855C137.159 15.032 138.042 14.8496 138.933 14.8496C139.825 14.8496 140.707 15.032 141.526 15.3855C142.345 15.7391 143.082 16.2564 143.694 16.9055C144.93 18.3145 145.612 20.1253 145.612 22C145.612 23.8747 144.93 25.6855 143.694 27.0945C143.092 27.7557 142.356 28.2811 141.536 28.6357C140.715 28.9903 139.828 29.1659 138.934 29.1507ZM138.934 17.5045C138.398 17.4966 137.868 17.6091 137.381 17.8338C136.895 18.0585 136.465 18.3895 136.123 18.8026C135.372 19.6988 134.961 20.8305 134.961 21.9995C134.961 23.1685 135.372 24.3003 136.123 25.1964C136.47 25.6034 136.9 25.9303 137.386 26.1545C137.871 26.3787 138.399 26.4948 138.934 26.4948C139.468 26.4948 139.997 26.3787 140.482 26.1545C140.967 25.9303 141.398 25.6034 141.745 25.1964C142.495 24.3003 142.907 23.1685 142.907 21.9995C142.907 20.8305 142.495 19.6988 141.745 18.8026C141.403 18.3898 140.973 18.0588 140.487 17.8342C140.001 17.6095 139.47 17.4968 138.934 17.5045Z" fill="white"/>
<path d="M153.631 29.1464C152.894 29.1679 152.162 29.0318 151.483 28.7471C150.803 28.4624 150.193 28.0357 149.692 27.4957C148.677 26.4061 148.163 24.8451 148.163 22.8543V15.0762H150.833V22.7591C150.779 23.7226 151.05 24.6763 151.604 25.4667C151.851 25.7638 152.161 26.0029 152.511 26.167C152.86 26.3311 153.242 26.4162 153.629 26.4162C154.015 26.4162 154.397 26.3311 154.747 26.167C155.097 26.0029 155.406 25.7638 155.653 25.4667C156.207 24.6762 156.478 23.7226 156.424 22.7591V15.0762H159.094V22.8543C159.094 24.844 158.58 26.4056 157.565 27.4957C157.065 28.0351 156.455 28.4614 155.776 28.7461C155.098 29.0308 154.366 29.1673 153.631 29.1464Z" fill="white"/>
<path d="M160.957 28.9309V26.6999H161.254C164.687 26.6999 165.095 25.9483 165.713 24.8099L165.757 24.7298C166.104 23.8801 166.349 22.9919 166.486 22.0842C166.783 20.6456 167.119 19.0155 167.826 17.742C169.236 15.2012 172.67 15.0723 173.344 15.0723H173.67V17.334H173.375C172.663 17.338 170.696 17.8166 170.05 18.9757C169.528 20.1268 169.167 21.3444 168.978 22.594C168.804 23.751 168.472 24.8786 167.99 25.9448C167.01 27.7472 166.011 28.9284 161.252 28.9284L160.957 28.9309Z" fill="white"/>
<path d="M66.5245 28.9233V17.2523H62.5889V15.0762H73.1264V17.2523H69.2109V28.9233H66.5245Z" fill="white"/>
<path d="M79.0018 15.0762H76.3154V28.9233H79.0018V15.0762Z" fill="white"/>
<path d="M95.513 28.9233V20.8107L95.1922 20.7331L91.0026 28.9258H89.3746L85.185 20.7331L84.8641 20.8107V28.9258H82.1777V15.0762H85.1563L90.18 25.0828L95.2028 15.0762H98.1999V28.9233H95.513Z" fill="white"/>
<path d="M101.365 28.9208V15.0742H110.936V17.2503H104.051V20.6732H109.687V22.8685H104.051V26.7472H111.276V28.9233L101.365 28.9208Z" fill="white"/>
<path d="M176.426 28.9269V15.0742H186V17.2509H179.114V20.6762H184.751V22.872H179.114V26.7507H186.341V28.9274L176.426 28.9269Z" fill="white"/>
<path d="M37.5072 13.2129V15.8701V30.7851H34.6798V16.0207H29.2969V13.2129H37.5072Z" fill="white"/>
<path d="M40.6627 16.0207C41.438 16.0207 42.0666 15.3921 42.0666 14.6168C42.0666 13.8414 41.438 13.2129 40.6627 13.2129C39.8873 13.2129 39.2588 13.8414 39.2588 14.6168C39.2588 15.3921 39.8873 16.0207 40.6627 16.0207Z" fill="white"/>
<path d="M34.677 43.9981C29.015 43.741 23.6702 41.3108 19.7543 37.2131C15.8385 33.1155 13.6533 27.6659 13.6533 21.998C13.6533 16.3302 15.8385 10.8806 19.7543 6.78295C23.6702 2.6853 29.015 0.25514 34.677 -0.00195312C34.677 0.193999 34.677 2.77361 34.677 2.83053C29.7636 3.08251 25.1345 5.21181 21.7459 8.7787C18.3572 12.3456 16.4678 17.0776 16.4678 21.9976C16.4678 26.9175 18.3572 31.6495 21.7459 35.2164C25.1345 38.7833 29.7636 40.9126 34.677 41.1646C34.675 41.6748 34.675 43.8222 34.677 43.9981Z" fill="white"/>
<path d="M37.5078 41.1065C42.2611 40.6526 46.6746 38.4434 49.8865 34.9103C53.0985 31.3771 54.8782 26.7736 54.8782 21.9986C54.8782 17.2237 53.0985 12.6202 49.8865 9.08704C46.6746 5.55385 42.2611 3.34465 37.5078 2.89082C37.5078 2.79511 37.5078 0.139942 37.5078 0.0507812C43.0139 0.508818 48.1467 3.01963 51.8881 7.08519C55.6295 11.1508 57.7062 16.474 57.7062 21.9992C57.7062 27.5243 55.6295 32.8475 51.8881 36.9131C48.1467 40.9787 43.0139 43.4895 37.5078 43.9475C37.5103 43.7017 37.5103 41.4132 37.5078 41.1065Z" fill="white"/>
</g>
<defs>
<clipPath id="clip0_367_42">
<rect width="200" height="44" fill="white"/>
</clipPath>
</defs>
</svg>
