<svg width="174" height="44" viewBox="0 0 174 44" fill="none" xmlns="http://www.w3.org/2000/svg">
<g clip-path="url(#clip0_415_42)">
<path d="M114.01 28.9238V23.5076H108.61V28.9238H105.955V15.0762H108.61V20.8137H114.01V15.0762H116.664V28.9238H114.01Z" fill="#930D19"/>
<path d="M125.934 29.1507C125.04 29.1662 124.153 28.9908 123.332 28.6363C122.511 28.2817 121.775 27.7561 121.173 27.0945C119.937 25.6854 119.255 23.8747 119.255 22C119.255 20.1253 119.937 18.3146 121.173 16.9055C121.784 16.2564 122.522 15.7391 123.341 15.3855C124.159 15.032 125.042 14.8496 125.933 14.8496C126.825 14.8496 127.707 15.032 128.526 15.3855C129.345 15.7391 130.082 16.2564 130.694 16.9055C131.93 18.3145 132.612 20.1253 132.612 22C132.612 23.8747 131.93 25.6855 130.694 27.0945C130.092 27.7557 129.356 28.2811 128.536 28.6357C127.715 28.9903 126.828 29.1659 125.934 29.1507ZM125.934 17.5045C125.398 17.4966 124.868 17.6091 124.381 17.8338C123.895 18.0585 123.465 18.3895 123.123 18.8026C122.372 19.6988 121.961 20.8305 121.961 21.9995C121.961 23.1685 122.372 24.3003 123.123 25.1964C123.47 25.6034 123.9 25.9303 124.386 26.1545C124.871 26.3787 125.399 26.4948 125.934 26.4948C126.468 26.4948 126.997 26.3787 127.482 26.1545C127.967 25.9303 128.398 25.6034 128.745 25.1964C129.495 24.3003 129.907 23.1685 129.907 21.9995C129.907 20.8305 129.495 19.6988 128.745 18.8026C128.403 18.3898 127.973 18.0588 127.487 17.8342C127.001 17.6095 126.47 17.4968 125.934 17.5045Z" fill="#930D19"/>
<path d="M140.631 29.1464C139.894 29.1679 139.162 29.0318 138.483 28.7471C137.803 28.4624 137.193 28.0357 136.692 27.4957C135.677 26.4061 135.163 24.8451 135.163 22.8543V15.0762H137.833V22.7591C137.779 23.7226 138.05 24.6763 138.604 25.4667C138.851 25.7638 139.161 26.0029 139.511 26.167C139.86 26.3311 140.242 26.4162 140.629 26.4162C141.015 26.4162 141.397 26.3311 141.747 26.167C142.097 26.0029 142.406 25.7638 142.653 25.4667C143.207 24.6762 143.478 23.7226 143.424 22.7591V15.0762H146.094V22.8543C146.094 24.844 145.58 26.4056 144.565 27.4957C144.065 28.0351 143.455 28.4614 142.776 28.7461C142.098 29.0308 141.366 29.1673 140.631 29.1464Z" fill="#930D19"/>
<path d="M147.957 28.9309V26.6999H148.254C151.687 26.6999 152.095 25.9483 152.713 24.8099L152.757 24.7298C153.104 23.8801 153.349 22.9919 153.486 22.0842C153.783 20.6456 154.119 19.0155 154.826 17.742C156.236 15.2012 159.67 15.0723 160.344 15.0723H160.67V17.334H160.375C159.663 17.338 157.696 17.8166 157.05 18.9757C156.528 20.1268 156.167 21.3444 155.978 22.594C155.804 23.751 155.472 24.8786 154.99 25.9448C154.01 27.7472 153.011 28.9284 148.252 28.9284L147.957 28.9309Z" fill="#930D19"/>
<path d="M53.5245 28.9233V17.2523H49.5889V15.0762H60.1264V17.2523H56.2109V28.9233H53.5245Z" fill="#930D19"/>
<path d="M66.0018 15.0762H63.3154V28.9233H66.0018V15.0762Z" fill="#930D19"/>
<path d="M82.513 28.9233V20.8107L82.1922 20.7331L78.0026 28.9258H76.3746L72.185 20.7331L71.8641 20.8107V28.9258H69.1777V15.0762H72.1563L77.18 25.0828L82.2028 15.0762H85.1999V28.9233H82.513Z" fill="#930D19"/>
<path d="M88.3652 28.9208V15.0742H97.9361V17.2503H91.0506V20.6732H96.6874V22.8685H91.0506V26.7472H98.2762V28.9233L88.3652 28.9208Z" fill="#930D19"/>
<path d="M163.426 28.9269V15.0742H173V17.2509H166.114V20.6762H171.751V22.872H166.114V26.7507H173.341V28.9274L163.426 28.9269Z" fill="#930D19"/>
<path d="M24.5072 13.2129V15.8701V30.7851H21.6798V16.0207H16.2969V13.2129H24.5072Z" fill="#930D19"/>
<path d="M27.6627 16.0207C28.438 16.0207 29.0666 15.3921 29.0666 14.6168C29.0666 13.8414 28.438 13.2129 27.6627 13.2129C26.8873 13.2129 26.2588 13.8414 26.2588 14.6168C26.2588 15.3921 26.8873 16.0207 27.6627 16.0207Z" fill="#930D19"/>
<path d="M21.677 43.9981C16.015 43.741 10.6702 41.3108 6.75434 37.2131C2.83853 33.1155 0.65332 27.6659 0.65332 21.998C0.65332 16.3302 2.83853 10.8806 6.75434 6.78295C10.6702 2.6853 16.015 0.25514 21.677 -0.00195312C21.677 0.193999 21.677 2.77361 21.677 2.83053C16.7636 3.08251 12.1345 5.21181 8.74585 8.7787C5.3572 12.3456 3.46776 17.0776 3.46776 21.9976C3.46776 26.9175 5.3572 31.6495 8.74585 35.2164C12.1345 38.7833 16.7636 40.9126 21.677 41.1646C21.675 41.6748 21.675 43.8222 21.677 43.9981Z" fill="#930D19"/>
<path d="M24.5078 41.1065C29.2611 40.6526 33.6746 38.4434 36.8865 34.9103C40.0985 31.3771 41.8782 26.7736 41.8782 21.9986C41.8782 17.2237 40.0985 12.6202 36.8865 9.08704C33.6746 5.55385 29.2611 3.34465 24.5078 2.89082C24.5078 2.79511 24.5078 0.139942 24.5078 0.0507812C30.0139 0.508818 35.1467 3.01963 38.8881 7.08519C42.6295 11.1508 44.7062 16.474 44.7062 21.9992C44.7062 27.5243 42.6295 32.8475 38.8881 36.9131C35.1467 40.9787 30.0139 43.4895 24.5078 43.9475C24.5103 43.7017 24.5103 41.4132 24.5078 41.1065Z" fill="#930D19"/>
</g>
<defs>
<clipPath id="clip0_415_42">
<rect width="174" height="44" fill="white"/>
</clipPath>
</defs>
</svg>
