<svg width="20" height="16" viewBox="0 0 20 16" fill="none" xmlns="http://www.w3.org/2000/svg">
<path d="M19.722 3.6582V12.8603C19.7221 13.6042 19.4378 14.3201 18.9275 14.8614C18.4171 15.4027 17.7192 15.7284 16.9765 15.7721L16.8054 15.777H3.19425C2.4503 15.777 1.73445 15.4927 1.19317 14.9824C0.651887 14.472 0.326094 13.7741 0.282449 13.0314L0.277588 12.8603V3.6582L9.46023 9.78029L9.573 9.84445C9.70591 9.90939 9.85189 9.94315 9.99981 9.94315C10.1477 9.94315 10.2937 9.90939 10.4266 9.84445L10.5394 9.78029L19.722 3.6582Z" fill="white"/>
<path d="M16.8053 0.22168C17.8553 0.22168 18.776 0.775846 19.2894 1.60904L9.99979 7.8021L0.710205 1.60904C0.954031 1.21317 1.28896 0.881333 1.68707 0.641183C2.08517 0.401034 2.53492 0.259535 2.99882 0.228485L3.19423 0.22168H16.8053Z" fill="white"/>
</svg>
