<svg width="46" height="32" viewBox="0 0 46 32" fill="none" xmlns="http://www.w3.org/2000/svg">
<path d="M42.1055 0H4.27036C2.37075 0 0.830811 1.54048 0.830811 3.44077V28.3863C0.830811 30.2866 2.37075 31.8271 4.27036 31.8271H42.1055C44.0051 31.8271 45.545 30.2866 45.545 28.3863V3.44077C45.545 1.54048 44.0051 0 42.1055 0Z" fill="#000066"/>
<path d="M39.2308 28.901V28.969H39.2944C39.3064 28.9692 39.3183 28.9662 39.3288 28.9603C39.333 28.9575 39.3363 28.9536 39.3386 28.9491C39.3408 28.9446 39.3419 28.9395 39.3417 28.9345C39.3418 28.9296 39.3407 28.9248 39.3384 28.9204C39.3362 28.9161 39.3329 28.9124 39.3288 28.9096C39.3185 28.9034 39.3065 28.9004 39.2944 28.901H39.2308ZM39.2944 28.8528C39.3217 28.8512 39.3488 28.8591 39.371 28.8752C39.3798 28.8824 39.3868 28.8917 39.3914 28.9022C39.3961 28.9126 39.3982 28.9239 39.3976 28.9354C39.3981 28.9453 39.3964 28.9552 39.3927 28.9644C39.389 28.9736 39.3833 28.9819 39.3761 28.9887C39.359 29.0034 39.3376 29.0122 39.3151 29.0137L39.401 29.1109H39.3357L39.2574 29.0145H39.2325V29.1109H39.1775V28.8528H39.2961H39.2944ZM39.2772 29.1969C39.3068 29.1974 39.3361 29.1916 39.3632 29.1797C39.3885 29.1686 39.4116 29.1529 39.4311 29.1333C39.4509 29.1139 39.4667 29.0907 39.4776 29.0652C39.4996 29.0126 39.5 28.9535 39.4786 28.9006C39.4571 28.8477 39.4157 28.8055 39.3632 28.7831C39.336 28.7716 39.3067 28.7661 39.2772 28.7668C39.2478 28.7665 39.2185 28.7719 39.1912 28.7831C39.1648 28.7939 39.1408 28.8099 39.1207 28.8301C39.1005 28.8503 39.0846 28.8744 39.0739 28.9008C39.0632 28.9273 39.0578 28.9556 39.0582 28.9842C39.0585 29.0127 39.0646 29.0409 39.076 29.067C39.0864 29.0925 39.1019 29.1157 39.1216 29.135C39.1416 29.1548 39.1652 29.1706 39.1912 29.1814C39.2184 29.1931 39.2477 29.199 39.2772 29.1986M39.2772 28.7057C39.3519 28.7057 39.4235 28.735 39.4767 28.7874C39.5022 28.8119 39.5226 28.8412 39.5369 28.8735C39.5514 28.9075 39.5589 28.9441 39.5589 28.981C39.5589 29.018 39.5514 29.0546 39.5369 29.0886C39.5223 29.1207 39.5019 29.1498 39.4767 29.1746C39.4517 29.1992 39.4226 29.2192 39.3907 29.2339C39.3559 29.2488 39.3185 29.2564 39.2807 29.2562C39.2423 29.2564 39.2042 29.2488 39.1689 29.2339C39.1349 29.2204 39.1041 29.2001 39.0784 29.1742C39.0527 29.1483 39.0325 29.1174 39.0193 29.0834C39.0047 29.0494 38.9972 29.0128 38.9972 28.9759C38.9972 28.9389 39.0047 28.9023 39.0193 28.8684C39.0479 28.8011 39.102 28.7478 39.1697 28.7203C39.2051 28.7054 39.2431 28.6978 39.2815 28.6979M13.2647 27.7079C13.2741 27.5432 13.3315 27.3851 13.4297 27.2527C13.528 27.1203 13.6628 27.0195 13.8176 26.9629C13.9724 26.9062 14.1403 26.8961 14.3008 26.9338C14.4613 26.9715 14.6072 27.0553 14.7206 27.175C14.834 27.2946 14.9099 27.4449 14.939 27.6072C14.968 27.7695 14.949 27.9367 14.8841 28.0883C14.8193 28.2399 14.7115 28.3692 14.5741 28.4603C14.4367 28.5514 14.2757 28.6002 14.1109 28.6008C13.9953 28.6024 13.8807 28.58 13.7743 28.5351C13.6678 28.4901 13.5718 28.4235 13.4923 28.3397C13.4128 28.2558 13.3516 28.1564 13.3124 28.0476C13.2732 27.9389 13.257 27.8232 13.2647 27.7079ZM15.5228 27.7079V26.3204H14.9166V26.6602C14.8131 26.5267 14.6792 26.4199 14.526 26.3488C14.3728 26.2777 14.2048 26.2443 14.0361 26.2516C13.66 26.2698 13.3053 26.4321 13.0456 26.7049C12.7858 26.9776 12.6409 27.3398 12.6409 27.7165C12.6409 28.0931 12.7858 28.4555 13.0456 28.7282C13.3053 29.0009 13.66 29.1631 14.0361 29.1814C14.2048 29.1885 14.3727 29.1552 14.5259 29.0841C14.6791 29.0131 14.8131 28.9063 14.9166 28.7728V29.1118H15.5185V27.7165L15.5228 27.7079ZM36.0122 27.7079C36.0216 27.5432 36.079 27.3851 36.1772 27.2527C36.2755 27.1203 36.4103 27.0195 36.5651 26.9629C36.7199 26.9062 36.8878 26.8961 37.0483 26.9338C37.2088 26.9715 37.3547 27.0553 37.4681 27.175C37.5815 27.2946 37.6574 27.4449 37.6864 27.6072C37.7155 27.7695 37.6964 27.9367 37.6316 28.0883C37.5668 28.2399 37.459 28.3692 37.3216 28.4603C37.1842 28.5514 37.0232 28.6002 36.8584 28.6008C36.7428 28.6024 36.6282 28.58 36.5218 28.5351C36.4153 28.4901 36.3193 28.4235 36.2398 28.3397C36.1603 28.2558 36.0991 28.1564 36.0599 28.0476C36.0207 27.9389 36.0045 27.8232 36.0122 27.7079ZM38.2703 27.7079V25.2021H37.6632V26.6645C37.5597 26.531 37.4258 26.4242 37.2726 26.3531C37.1194 26.282 36.9514 26.2486 36.7827 26.2559C36.4066 26.2741 36.0519 26.4364 35.7922 26.7092C35.5325 26.9819 35.3876 27.3441 35.3876 27.7208C35.3876 28.0975 35.5325 28.4598 35.7922 28.7325C36.0519 29.0052 36.4066 29.1674 36.7827 29.1857C36.9514 29.1928 37.1194 29.1595 37.2726 29.0884C37.4258 29.0174 37.5597 28.9106 37.6632 28.7771V29.1161H38.2703V27.7079ZM23.0503 26.7858C23.2336 26.7821 23.4109 26.8513 23.5432 26.9782C23.6756 27.1051 23.7522 27.2794 23.7562 27.4628H22.309C22.3197 27.2754 22.4033 27.0997 22.5418 26.9731C22.6803 26.8466 22.8628 26.7794 23.0503 26.7858ZM23.0623 26.2421C22.6739 26.2475 22.3036 26.407 22.0327 26.6855C21.7619 26.9641 21.6128 27.3388 21.6181 27.7273C21.6235 28.1158 21.7829 28.4862 22.0613 28.7572C22.3397 29.0281 22.7143 29.1773 23.1027 29.1719C23.5188 29.1865 23.9256 29.0472 24.2455 28.7806L23.948 28.3316C23.7176 28.5161 23.4323 28.6187 23.1371 28.6232C22.9366 28.6401 22.7374 28.5783 22.5817 28.4508C22.4259 28.3233 22.326 28.1401 22.303 27.9401H24.3736C24.3797 27.8644 24.3857 27.7887 24.3857 27.707C24.4028 27.5223 24.3814 27.336 24.3228 27.1599C24.2641 26.9839 24.1696 26.8221 24.045 26.6846C23.9205 26.5471 23.7688 26.4369 23.5995 26.3612C23.4301 26.2855 23.2469 26.2458 23.0614 26.2447M30.3825 27.707C30.3919 27.5424 30.4493 27.3841 30.5475 27.2517C30.6458 27.1193 30.7806 27.0187 30.9354 26.962C31.0902 26.9053 31.2581 26.8952 31.4186 26.9329C31.5791 26.9706 31.725 27.0545 31.8384 27.1741C31.9518 27.2938 32.0277 27.444 32.0568 27.6063C32.0858 27.7686 32.0668 27.9358 32.0019 28.0874C31.9371 28.239 31.8293 28.3683 31.6919 28.4594C31.5545 28.5504 31.3935 28.5994 31.2287 28.6C31.1131 28.6015 30.9985 28.5791 30.8921 28.5341C30.7856 28.4892 30.6896 28.4227 30.6101 28.3388C30.5306 28.2549 30.4694 28.1555 30.4302 28.0468C30.391 27.9381 30.3748 27.8223 30.3825 27.707ZM32.6406 27.707V26.3204H32.0387V26.6602C31.9352 26.5268 31.8012 26.42 31.648 26.3489C31.4949 26.2778 31.3269 26.2444 31.1582 26.2516C30.7821 26.2698 30.4274 26.4321 30.1677 26.7049C29.9079 26.9776 29.763 27.3398 29.763 27.7165C29.763 28.0931 29.9079 28.4555 30.1677 28.7282C30.4274 29.0009 30.7821 29.1631 31.1582 29.1814C31.3269 29.1885 31.4948 29.1551 31.648 29.084C31.8012 29.013 31.9351 28.9062 32.0387 28.7728V29.1118H32.6449V27.7165L32.6406 27.707ZM26.9585 27.707C26.9507 27.9033 26.9841 28.0992 27.0564 28.2818C27.1288 28.4645 27.2386 28.63 27.3787 28.7677C27.5187 28.9054 27.6861 29.0122 27.8699 29.0814C28.0537 29.1506 28.25 29.1806 28.4461 29.1694C28.8101 29.1873 29.1677 29.0686 29.4487 28.8364L29.1572 28.3462C28.947 28.5065 28.6906 28.5946 28.4263 28.5973C28.1978 28.5851 27.9826 28.4856 27.8252 28.3194C27.6678 28.1532 27.58 27.933 27.58 27.7041C27.58 27.4751 27.6678 27.2548 27.8252 27.0886C27.9826 26.9225 28.1978 26.823 28.4263 26.8107C28.6906 26.8136 28.9469 26.9016 29.1572 27.0619L29.4487 26.5716C29.1677 26.3395 28.8101 26.2208 28.4461 26.2387C28.25 26.2276 28.0537 26.2575 27.8699 26.3266C27.6861 26.3958 27.5187 26.5027 27.3787 26.6404C27.2386 26.7781 27.1288 26.9436 27.0564 27.1262C26.9841 27.3089 26.9507 27.5047 26.9585 27.701M34.7757 26.2387C34.6278 26.2344 34.4814 26.2701 34.352 26.342C34.2226 26.4139 34.115 26.5194 34.0405 26.6473V26.3092H33.4386V29.0988H34.0457V27.535C34.0457 27.0731 34.2443 26.8168 34.6407 26.8168C34.7705 26.8151 34.8994 26.839 35.0199 26.8873L35.2065 26.3153C35.0686 26.2655 34.9223 26.2396 34.7757 26.2387ZM18.5247 26.5303C18.1815 26.3263 17.7869 26.2251 17.3879 26.2387C16.6811 26.2387 16.2262 26.5776 16.2262 27.1316C16.2262 27.5866 16.565 27.8671 17.1884 27.9548L17.4748 27.9953C17.8075 28.0417 17.964 28.1294 17.964 28.2868C17.964 28.5028 17.743 28.6257 17.3286 28.6257C16.9953 28.6354 16.6685 28.5327 16.4008 28.3341L16.1161 28.8072C16.4684 29.0535 16.8903 29.1804 17.32 29.1694C18.1257 29.1694 18.5917 28.7901 18.5917 28.2593C18.5917 27.769 18.2246 27.5126 17.6175 27.4249L17.332 27.3836C17.0697 27.3492 16.8591 27.2976 16.8591 27.1101C16.8591 26.9062 17.0577 26.7832 17.3896 26.7832C17.695 26.7878 17.9942 26.87 18.259 27.0223L18.5212 26.532L18.5247 26.5303ZM26.3497 26.2387C26.2018 26.2344 26.0555 26.27 25.9263 26.342C25.797 26.4139 25.6896 26.5194 25.6153 26.6473V26.3084H25.0134V29.098H25.6196V27.5342C25.6196 27.0723 25.8182 26.8158 26.2147 26.8158C26.3445 26.8141 26.4733 26.8381 26.5939 26.8864L26.7805 26.3143C26.6425 26.2646 26.4971 26.2387 26.3505 26.2378M21.1766 26.3084H20.1851V25.4619H19.572V26.3084H19.0062V26.8624H19.572V28.1346C19.572 28.7815 19.8231 29.1668 20.5403 29.1668C20.8083 29.1676 21.0712 29.0928 21.2987 28.9509L21.1267 28.4348C20.964 28.5317 20.7794 28.5859 20.5901 28.5922C20.2866 28.5922 20.1886 28.4056 20.1886 28.1251V26.864H21.18L21.1766 26.3084ZM12.1108 29.0988V27.3483C12.1209 27.2011 12.0996 27.0533 12.0482 26.915C11.9968 26.7766 11.9165 26.6508 11.8127 26.5459C11.7089 26.441 11.5839 26.3594 11.4461 26.3066C11.3083 26.2538 11.1609 26.2309 11.0136 26.2396C10.8207 26.2269 10.628 26.2663 10.4555 26.3536C10.2831 26.4409 10.1373 26.573 10.0333 26.7359C9.93853 26.5779 9.80287 26.4482 9.64062 26.3609C9.47838 26.2735 9.29556 26.2316 9.11147 26.2396C8.95101 26.2316 8.79124 26.2656 8.64796 26.3383C8.50468 26.411 8.38287 26.5199 8.29458 26.6541V26.31H7.6875V29.0997H8.29888V27.5514C8.28566 27.4559 8.29373 27.3587 8.3225 27.2667C8.35128 27.1748 8.40005 27.0903 8.46532 27.0195C8.53058 26.9486 8.61073 26.893 8.7 26.8568C8.78927 26.8206 8.88544 26.8045 8.98163 26.8099C9.38406 26.8099 9.58785 27.0722 9.58785 27.5453V29.0937H10.201V27.5453C10.1887 27.45 10.1974 27.3533 10.2265 27.2617C10.2556 27.1701 10.3045 27.086 10.3695 27.0154C10.4346 26.9447 10.5144 26.8891 10.6032 26.8526C10.692 26.8161 10.7878 26.7994 10.8837 26.8039C11.2982 26.8039 11.4951 27.0662 11.4951 27.5393V29.0876L12.1108 29.0988Z" fill="white"/>
<path d="M39.5766 19.8325V19.4248H39.4708L39.3479 19.7044L39.2257 19.4248H39.1191V19.8325H39.1948V19.5255L39.3091 19.7904H39.3874L39.5026 19.5246V19.8325H39.5766ZM38.9024 19.8325V19.4936H39.0383V19.4248H38.6943V19.4936H38.8302V19.8317H38.905L38.9024 19.8325Z" fill="#F79410"/>
<path d="M27.5106 21.5824H18.3184V5.06152H27.5106V21.5824Z" fill="#FF5F00"/>
<path d="M18.9039 13.3222C18.9028 11.7316 19.2635 10.1615 19.9584 8.73088C20.6534 7.30023 21.6645 6.04643 22.9153 5.06433C21.3659 3.84616 19.5051 3.08863 17.5457 2.87832C15.5863 2.66801 13.6073 3.01341 11.8349 3.87503C10.0624 4.73665 8.56802 6.07974 7.52253 7.75078C6.47704 9.42182 5.92261 11.3534 5.92261 13.3247C5.92261 15.2961 6.47704 17.2277 7.52253 18.8987C8.56802 20.5698 10.0624 21.9128 11.8349 22.7745C13.6073 23.6361 15.5863 23.9815 17.5457 23.7712C19.5051 23.5609 21.3659 22.8033 22.9153 21.5852C21.6645 20.6031 20.6534 19.3493 19.9584 17.9186C19.2635 16.488 18.9028 14.9179 18.9039 13.3273" fill="#EB001B"/>
<path d="M39.905 13.3228C39.9046 15.294 39.3498 17.2254 38.3041 18.8961C37.2584 20.5668 35.7639 21.9096 33.9915 22.7709C32.219 23.6322 30.2401 23.9774 28.2809 23.7669C26.3216 23.5564 24.4611 22.7988 22.9119 21.5807C24.1621 20.5975 25.1729 19.3431 25.8679 17.9122C26.5629 16.4812 26.9241 14.9111 26.9241 13.3202C26.9241 11.7293 26.5629 10.1592 25.8679 8.7283C25.1729 7.29737 24.1621 6.043 22.9119 5.05981C24.4611 3.84164 26.3216 3.08403 28.2809 2.87355C30.2401 2.66307 32.219 3.00821 33.9915 3.86954C35.7639 4.73086 37.2584 6.07362 38.3041 7.74436C39.3498 9.41511 39.9046 11.3464 39.905 13.3176" fill="#F79E1B"/>
</svg>
