<svg width="51" height="32" viewBox="0 0 51 32" fill="none" xmlns="http://www.w3.org/2000/svg">
<path d="M3.03299 0.0800781H47.7051C48.3822 0.0800781 49.0315 0.34915 49.5103 0.828101C49.9891 1.30705 50.2581 1.95665 50.2581 2.63399V29.447C50.2581 30.1244 49.9891 30.774 49.5103 31.2529C49.0315 31.7319 48.3822 32.0009 47.7051 32.0009H3.03299C2.35589 32.0009 1.70652 31.7319 1.22774 31.2529C0.748957 30.774 0.47998 30.1244 0.47998 29.447L0.47998 2.63399C0.47998 1.95665 0.748957 1.30705 1.22774 0.828101C1.70652 0.34915 2.35589 0.0800781 3.03299 0.0800781Z" fill="#000066"/>
<path d="M44.5149 16.0414C44.5143 18.3074 43.8422 20.5223 42.5834 22.4062C41.3245 24.29 39.5356 25.7582 37.4427 26.6251C35.3498 27.4919 33.047 27.7185 30.8254 27.2762C28.6038 26.8338 26.5631 25.7425 24.9615 24.1401C23.3599 22.5376 22.2693 20.4961 21.8274 18.2737C21.3856 16.0512 21.6124 13.7476 22.4793 11.6541C23.3461 9.56062 24.8141 7.77126 26.6974 6.51227C28.5808 5.25329 30.7951 4.58122 33.0603 4.58105C34.5646 4.58117 36.0541 4.8777 37.4439 5.4537C38.8336 6.02971 40.0963 6.87392 41.1599 7.93812C42.2235 9.00232 43.0671 10.2657 43.6426 11.656C44.2181 13.0464 44.5142 14.5366 44.514 16.0414" fill="#D9222A"/>
<path d="M24.212 23.3175C23.8947 22.9326 23.6031 22.5271 23.3392 22.1038H27.3987C27.6432 21.7129 27.8637 21.3076 28.0591 20.89H22.6797C22.4949 20.4954 22.333 20.0904 22.1947 19.6772H28.5432C29.1927 17.7224 29.3073 15.6294 28.8752 13.6154H21.8645C21.9529 13.205 22.064 12.7998 22.1973 12.4017H28.5432C28.4048 11.9886 28.2432 11.5837 28.0591 11.1888H22.6822C22.8777 10.7714 23.0979 10.3661 23.3418 9.97507H27.3987C27.1342 9.55242 26.8426 9.14729 26.5259 8.7622H24.2137C24.5691 8.33049 24.9554 7.92514 25.3694 7.54933C23.6727 6.0107 21.5541 5.01592 19.2868 4.69333C17.0196 4.37074 14.7077 4.73512 12.6495 5.73948C10.5912 6.74385 8.88101 8.34211 7.73948 10.3281C6.59794 12.3141 6.07744 14.5966 6.24512 16.8814C6.41281 19.1661 7.26098 21.3482 8.68023 23.1461C10.0995 24.944 12.0247 26.2752 14.2075 26.9681C16.3903 27.661 18.7306 27.6837 20.9264 27.0333C23.1223 26.3829 25.073 25.0892 26.5268 23.3192H24.212" fill="#0097D0"/>
<path d="M42.9887 22.4258C42.9887 22.3526 43.0103 22.2811 43.051 22.2203C43.0916 22.1595 43.1493 22.1121 43.2169 22.0841C43.2845 22.0561 43.3588 22.0488 43.4305 22.063C43.5023 22.0773 43.5682 22.1125 43.6199 22.1643C43.6716 22.216 43.7068 22.2819 43.7211 22.3536C43.7353 22.4254 43.728 22.4998 43.7 22.5674C43.672 22.6349 43.6246 22.6927 43.5638 22.7333C43.503 22.774 43.4315 22.7957 43.3584 22.7957C43.3098 22.7957 43.2618 22.7861 43.2169 22.7675C43.1721 22.7489 43.1313 22.7217 43.097 22.6873C43.0626 22.653 43.0354 22.6122 43.0168 22.5674C42.9982 22.5225 42.9887 22.4744 42.9887 22.4258ZM43.3584 22.7071C43.4328 22.7071 43.5042 22.6776 43.5569 22.625C43.6096 22.5724 43.6394 22.5011 43.6396 22.4267C43.6396 22.3523 43.6101 22.281 43.5575 22.2284C43.5049 22.1758 43.4336 22.1462 43.3593 22.1462C43.2848 22.1462 43.2134 22.1758 43.1607 22.2283C43.108 22.2809 43.0783 22.3522 43.0781 22.4267C43.0781 22.5013 43.1077 22.5728 43.1604 22.6256C43.2132 22.6783 43.2847 22.7079 43.3593 22.7079L43.3584 22.7071ZM43.3085 22.5884H43.2329V22.2632H43.3696C43.3992 22.2599 43.4292 22.2656 43.4556 22.2796C43.4685 22.2887 43.479 22.3009 43.4861 22.3149C43.4933 22.329 43.497 22.3446 43.4969 22.3604C43.498 22.3789 43.4932 22.3972 43.4831 22.4127C43.4731 22.4282 43.4583 22.44 43.441 22.4464L43.5003 22.5901H43.4143L43.3644 22.4619H43.3085V22.5884ZM43.3085 22.4043H43.3507C43.3664 22.4061 43.3824 22.4041 43.3971 22.3983C43.4031 22.394 43.4079 22.3883 43.4112 22.3817C43.4145 22.3751 43.4162 22.3678 43.416 22.3604C43.4157 22.354 43.4139 22.3476 43.4108 22.342C43.4077 22.3363 43.4033 22.3314 43.398 22.3277C43.3824 22.3218 43.3655 22.3197 43.3489 22.3217H43.3085V22.4043ZM25.207 19.1356C24.7304 19.2641 24.2388 19.3286 23.7452 19.3274C22.1484 19.3274 21.3169 18.5988 21.3169 17.2079C21.2862 16.8569 21.3273 16.5035 21.4375 16.1689C21.5478 15.8344 21.7249 15.5258 21.9582 15.2619C22.1915 14.998 22.476 14.7844 22.7945 14.634C23.1129 14.4837 23.4586 14.3997 23.8106 14.3873C24.0534 14.3564 24.3 14.378 24.5338 14.4506C24.7676 14.5232 24.9831 14.6452 25.1657 14.8083C25.3483 14.9714 25.4937 15.1718 25.5922 15.396C25.6908 15.6201 25.74 15.8628 25.7367 16.1077C25.7312 16.503 25.6734 16.8958 25.5647 17.2758H22.7271C22.6256 17.9545 23.1218 18.253 23.9662 18.253C24.4707 18.2537 24.9703 18.1537 25.4357 17.9588L25.2122 19.1364L25.207 19.1356ZM24.4434 16.3167C24.4434 16.2144 24.6017 15.4849 23.7796 15.4686C23.3256 15.4686 23.0005 15.7705 22.869 16.3167H24.4434ZM26.1684 15.9985C26.1684 16.6006 26.5063 17.0135 27.2742 17.3223C27.8615 17.5631 27.9535 17.6328 27.9535 17.847C27.9535 18.1446 27.6955 18.2814 27.1177 18.2771C26.6813 18.275 26.2473 18.2128 25.8279 18.0921L25.6215 19.1872C26.1192 19.2799 26.6243 19.3265 27.1306 19.3265C28.6638 19.3265 29.3715 18.8242 29.3715 17.7386C29.3815 17.4335 29.2847 17.1345 29.0979 16.8932C28.9111 16.6518 28.646 16.4832 28.3482 16.4165C27.7394 16.1731 27.668 16.1206 27.668 15.9004C27.668 15.6423 27.9088 15.5107 28.3792 15.5107C28.7287 15.5149 29.0778 15.5385 29.4248 15.5813L29.6329 14.4811C29.208 14.425 28.7802 14.3934 28.3516 14.3864C26.7273 14.3864 26.1649 15.1185 26.1701 15.9976M20.5387 19.2483H19.3477L19.3761 18.7493C19.1827 18.9492 18.9479 19.1043 18.6883 19.204C18.4287 19.3037 18.1505 19.3455 17.873 19.3265C17.6998 19.3362 17.5264 19.3094 17.3641 19.2479C17.2018 19.1865 17.0542 19.0916 16.9308 18.9696C16.8074 18.8475 16.711 18.7009 16.6477 18.5393C16.5844 18.3776 16.5557 18.2045 16.5634 18.0311C16.5634 16.8698 17.4887 16.1997 19.0795 16.1997C19.2749 16.2014 19.4701 16.2135 19.6642 16.2359C19.6984 16.1369 19.7172 16.0334 19.7201 15.9288C19.7201 15.6105 19.4698 15.4935 18.8 15.4935C18.2864 15.4927 17.7752 15.564 17.2814 15.7051L17.4852 14.6393C18.0421 14.4794 18.6179 14.3947 19.1973 14.3873C20.4295 14.3873 21.0796 14.8707 21.0796 15.7791C21.0688 16.0956 21.0299 16.4105 20.9635 16.7201C20.9145 17.0324 20.5731 18.8259 20.537 19.2491L20.5387 19.2483ZM19.4931 17.1296C19.3869 17.1167 19.2801 17.1101 19.1732 17.1098C18.3606 17.1098 17.9487 17.3515 17.9487 17.8289C17.9455 17.8963 17.9569 17.9636 17.9821 18.0261C18.0072 18.0887 18.0457 18.145 18.0947 18.1914C18.1437 18.2377 18.2021 18.2729 18.2659 18.2945C18.3298 18.3161 18.3976 18.3237 18.4646 18.3167C18.6106 18.308 18.7533 18.2702 18.8845 18.2055C19.0156 18.1409 19.1325 18.0506 19.2282 17.9401C19.324 17.8296 19.3966 17.701 19.442 17.562C19.4873 17.4229 19.5044 17.2762 19.4922 17.1305L19.4931 17.1296ZM31.8806 19.1734C31.5479 19.2726 31.2028 19.3245 30.8556 19.3274C30.1256 19.3274 29.7275 18.9541 29.7275 18.29C29.7658 17.8662 29.8313 17.4452 29.9235 17.0298C29.9639 16.7941 30.5959 13.3594 30.5959 13.3594H32.0139L31.7989 14.4957H32.5264L32.3286 15.6561H31.5943C31.5943 15.6561 31.1936 17.6689 31.1936 17.8221C31.1936 18.0663 31.3415 18.1721 31.6811 18.1721C31.811 18.176 31.9407 18.1612 32.0663 18.1283L31.8772 19.1734M38.2111 14.3873C37.759 14.3649 37.3086 14.4579 36.9024 14.6578C36.4962 14.8577 36.1476 15.1577 35.8894 15.5296L36.2987 14.4699C35.5446 14.1929 35.0588 14.5877 34.6185 15.1494C34.6185 15.1494 34.5446 15.2432 34.4715 15.3284V14.4948H33.1421C32.9615 15.9649 32.6433 17.4556 32.3931 18.9283L32.3329 19.2491H33.7646C33.9005 18.5016 34.0123 17.8952 34.1232 17.4117C34.4276 16.0845 34.9392 15.6793 35.708 15.8582C35.5216 16.2702 35.4277 16.7179 35.4328 17.17C35.4081 17.4672 35.4499 17.7661 35.5552 18.0451C35.6605 18.324 35.8266 18.576 36.0415 18.7826C36.2564 18.9893 36.5146 19.1454 36.7974 19.2396C37.0802 19.3338 37.3804 19.3638 37.6763 19.3274C38.0551 19.3655 38.4376 19.3181 38.7956 19.1887C39.1537 19.0593 39.4782 18.8512 39.7452 18.5797C40.0122 18.3082 40.2149 17.9803 40.3384 17.6201C40.4619 17.2598 40.5031 16.8765 40.4589 16.4982C40.4702 16.2065 40.4188 15.9157 40.3082 15.6455C40.1975 15.3753 40.0303 15.132 39.8176 14.932C39.605 14.732 39.3519 14.5799 39.0755 14.4861C38.7991 14.3923 38.5058 14.3589 38.2154 14.3882L38.2111 14.3873ZM37.7941 18.1721C37.2885 18.1799 36.9815 17.7558 36.9815 17.121C36.9815 16.3683 37.4286 15.5176 38.1475 15.5176C38.727 15.5176 38.9257 15.9778 38.9257 16.4638C38.9291 17.5408 38.4906 18.1747 37.7966 18.1747L37.7941 18.1721ZM15.8927 19.2474H14.467L15.3149 14.7813L13.3638 19.2474H12.0636L11.8263 14.8071L10.9759 19.2474H9.68604L10.7884 13.4385H13.0164L13.2021 16.6771L14.6132 13.4385H17.0209L15.897 19.2474" fill="black"/>
<path d="M40.5672 18.5226C40.5673 18.4495 40.5891 18.3781 40.6298 18.3174C40.6705 18.2567 40.7283 18.2094 40.7958 18.1815C40.8633 18.1536 40.9376 18.1464 41.0093 18.1607C41.0809 18.175 41.1467 18.2102 41.1984 18.2619C41.25 18.3135 41.2852 18.3794 41.2995 18.451C41.3138 18.5227 41.3066 18.597 41.2787 18.6646C41.2508 18.7321 41.2035 18.7899 41.1429 18.8306C41.0822 18.8713 41.0108 18.8931 40.9378 18.8933C40.8891 18.8934 40.8408 18.8839 40.7958 18.8653C40.7508 18.8467 40.7099 18.8194 40.6754 18.785C40.641 18.7505 40.6137 18.7096 40.5951 18.6646C40.5765 18.6195 40.567 18.5713 40.5672 18.5226ZM40.9369 18.8038C40.9925 18.8038 41.0469 18.7873 41.0931 18.7564C41.1394 18.7255 41.1754 18.6816 41.1967 18.6302C41.218 18.5788 41.2235 18.5222 41.2127 18.4677C41.2018 18.4131 41.1751 18.363 41.1357 18.3236C41.0964 18.2843 41.0463 18.2575 40.9918 18.2467C40.9372 18.2358 40.8807 18.2414 40.8293 18.2627C40.7779 18.284 40.734 18.32 40.7031 18.3663C40.6722 18.4125 40.6557 18.4669 40.6557 18.5226C40.656 18.5971 40.6857 18.6685 40.7383 18.7212C40.791 18.7739 40.8624 18.8036 40.9369 18.8038ZM40.887 18.6851H40.8079V18.3608H40.9455C40.9752 18.3576 41.0051 18.3633 41.0315 18.3772C41.0444 18.3863 41.0549 18.3985 41.0621 18.4125C41.0692 18.4266 41.0729 18.4422 41.0728 18.458C41.0739 18.4766 41.0689 18.495 41.0587 18.5105C41.0485 18.526 41.0335 18.5378 41.016 18.5441L41.0753 18.6877H40.9894L40.9403 18.5595H40.8844L40.887 18.6851ZM40.887 18.501H40.9292C40.9449 18.5027 40.9608 18.5007 40.9756 18.495C40.9816 18.4908 40.9865 18.4851 40.9898 18.4785C40.9931 18.4719 40.9947 18.4646 40.9945 18.4572C40.9944 18.4507 40.9926 18.4443 40.9895 18.4386C40.9864 18.4329 40.9819 18.4281 40.9765 18.4245C40.9609 18.4183 40.944 18.4163 40.9274 18.4185H40.887V18.501ZM25.5638 18.7789C25.0873 18.9078 24.5957 18.9726 24.102 18.9716C22.5052 18.9716 21.6737 18.2421 21.6737 16.8512C21.6429 16.5002 21.6838 16.1467 21.794 15.8121C21.9043 15.4775 22.0814 15.1688 22.3147 14.9049C22.548 14.6411 22.8326 14.4274 23.1511 14.2771C23.4696 14.1268 23.8154 14.0429 24.1674 14.0306C24.4101 13.9998 24.6567 14.0215 24.8903 14.0942C25.124 14.1669 25.3394 14.2889 25.5219 14.452C25.7044 14.6151 25.8498 14.8154 25.9482 15.0395C26.0467 15.2636 26.0959 15.5062 26.0927 15.751C26.0869 16.1463 26.0291 16.539 25.9207 16.9192H23.083C22.9824 17.5978 23.4777 17.8963 24.3213 17.8963C24.8259 17.8968 25.3255 17.7965 25.7908 17.6013L25.5638 18.7789ZM24.8002 15.96C24.8002 15.8577 24.9576 15.1282 24.1364 15.1119C23.6824 15.1119 23.3573 15.4138 23.2258 15.96H24.8002ZM26.526 15.6409C26.526 16.243 26.8631 16.6559 27.6318 16.9656C28.2192 17.2065 28.3112 17.2753 28.3112 17.4895C28.3112 17.7871 28.0532 17.9239 27.4762 17.9196C27.0398 17.9176 26.6058 17.8554 26.1864 17.7346L25.98 18.8296C26.4779 18.9231 26.9834 18.97 27.49 18.9698C29.0232 18.9698 29.7308 18.4675 29.7308 17.3819C29.7408 17.0767 29.6439 16.7776 29.4569 16.5363C29.27 16.2949 29.0046 16.1264 28.7067 16.0598C28.0979 15.8164 28.0265 15.7639 28.0265 15.5437C28.0265 15.2857 28.2682 15.154 28.7377 15.154C29.0872 15.1583 29.4363 15.1818 29.7833 15.2246L29.9905 14.1235C29.5659 14.0675 29.1384 14.036 28.7102 14.0289C27.0858 14.0289 26.5235 14.7601 26.5286 15.6392M20.8972 18.8907H19.7063L19.7346 18.3918C19.541 18.5913 19.3062 18.7462 19.0466 18.8457C18.787 18.9452 18.5089 18.987 18.2316 18.9681C18.0583 18.9777 17.885 18.9508 17.7228 18.8893C17.5605 18.8277 17.413 18.7329 17.2896 18.6109C17.1663 18.4888 17.0698 18.3423 17.0065 18.1807C16.9432 18.0191 16.9144 17.8461 16.9219 17.6727C16.9219 16.5106 17.8472 15.8405 19.438 15.8405C19.6337 15.8422 19.8291 15.8543 20.0236 15.8766C20.0578 15.7777 20.0767 15.6741 20.0795 15.5695C20.0795 15.2512 19.8292 15.1342 19.1602 15.1342C18.6467 15.1336 18.1355 15.2049 17.6417 15.3459L17.8446 14.2801C18.4015 14.1201 18.9773 14.0353 19.5566 14.028C20.7889 14.028 21.4389 14.5115 21.4389 15.419C21.428 15.7358 21.3892 16.051 21.3229 16.3609C21.2713 16.6731 20.9299 18.4684 20.8946 18.8924L20.8972 18.8907ZM19.8516 16.7712C19.7454 16.7582 19.6386 16.7516 19.5317 16.7514C18.72 16.7514 18.3081 16.9931 18.3081 17.4705C18.3049 17.5379 18.3162 17.6052 18.3414 17.6677C18.3666 17.7303 18.405 17.7866 18.454 17.833C18.503 17.8793 18.5615 17.9145 18.6253 17.9361C18.6892 17.9577 18.757 17.9653 18.824 17.9583C18.9697 17.9494 19.1121 17.9115 19.243 17.8467C19.3738 17.782 19.4904 17.6918 19.5859 17.5814C19.6813 17.4709 19.7538 17.3425 19.799 17.2037C19.8442 17.0649 19.8612 16.9184 19.849 16.7729L19.8516 16.7712ZM32.2391 18.815C31.9064 18.9141 31.5613 18.9659 31.2141 18.969C30.4841 18.969 30.0868 18.5957 30.0868 17.9316C30.1249 17.5078 30.1901 17.0869 30.282 16.6714C30.3224 16.4357 30.9545 13.001 30.9545 13.001H32.3716L32.1574 14.1373H32.884L32.6863 15.2977H31.9511C31.9511 15.2977 31.5504 17.3105 31.5504 17.4645C31.5504 17.7088 31.6983 17.8146 32.0379 17.8146C32.1675 17.8185 32.2969 17.8038 32.4223 17.7707L32.2331 18.8167M39.2842 16.1123C39.2842 17.1832 38.8448 17.8172 38.1509 17.8172C37.6452 17.8241 37.3391 17.4009 37.3391 16.7652C37.3391 16.0125 37.7863 15.1618 38.5051 15.1618C39.0881 15.1626 39.2859 15.6228 39.2859 16.1123H39.2842ZM40.8148 16.1424C40.8264 15.8506 40.7752 15.5597 40.6647 15.2894C40.5542 15.019 40.3871 14.7755 40.1745 14.5754C39.9619 14.3752 39.7089 14.223 39.4325 14.129C39.1561 14.035 38.8627 14.0015 38.5722 14.0306C38.201 14.0077 37.8291 14.064 37.4813 14.1958C37.1335 14.3276 36.8177 14.532 36.5549 14.7952C36.292 15.0585 36.0882 15.3746 35.9568 15.7227C35.8255 16.0708 35.7697 16.4429 35.7931 16.8142C35.7683 17.1114 35.8101 17.4103 35.9154 17.6892C36.0207 17.9682 36.1868 18.2201 36.4017 18.4268C36.6166 18.6334 36.8748 18.7896 37.1576 18.8838C37.4404 18.978 37.7407 19.008 38.0365 18.9716C38.4151 19.0092 38.7973 18.9615 39.155 18.832C39.5128 18.7024 39.8369 18.4942 40.1036 18.2228C40.3703 17.9514 40.5728 17.6236 40.6962 17.2636C40.8196 16.9035 40.8607 16.5204 40.8165 16.1424H40.8148ZM33.4972 14.139C33.3174 15.6091 32.9984 17.0998 32.749 18.5724L32.6889 18.8933H34.1206C34.6365 16.0486 34.8085 15.2383 35.8911 15.5239L36.407 14.1777C35.6529 13.9007 35.1671 14.2964 34.7285 14.8581C34.7869 14.6227 34.8192 14.3815 34.8248 14.139H33.4989M16.2512 18.8933H14.8255L15.6725 14.4272L13.7214 18.8933H12.423L12.1857 14.453L11.3352 18.8933H10.0454L11.1469 13.0836H13.3758L13.4936 16.68L15.062 13.0836H17.3837L16.2598 18.8933" fill="white"/>
</svg>
