<svg width="51" height="32" viewBox="0 0 51 32" fill="none" xmlns="http://www.w3.org/2000/svg">
<path d="M3.06082 0H47.7329C48.41 0 49.0594 0.269072 49.5381 0.748023C50.0169 1.22697 50.2859 1.87657 50.2859 2.55391V29.367C50.2859 30.0443 50.0169 30.6939 49.5381 31.1728C49.0594 31.6518 48.41 31.9209 47.7329 31.9209H3.06082C2.38372 31.9209 1.73435 31.6518 1.25557 31.1728C0.776789 30.6939 0.507813 30.0443 0.507812 29.367L0.507813 2.55391C0.507813 1.87657 0.776789 1.22697 1.25557 0.748023C1.73435 0.269072 2.38372 0 3.06082 0Z" fill="#5AFEAE"/>
<g clip-path="url(#clip0_418_1019)">
<path d="M40.1036 22H11.8964C9.18148 22 7 20.3136 7 18.2511V13.7489C7 11.668 9.20189 10 11.8964 10H40.1036C42.8213 10 45 11.6864 45 13.7489V18.2511C45 20.3136 42.8185 22 40.1036 22Z" fill="#5AFEAE"/>
<path d="M38.1593 13.1924L36.2149 20.6423V20.6656H37.7378L39.6821 13.2157H38.1593V13.1924ZM14.1222 17.4228C13.8967 17.5352 13.6477 17.5916 13.3959 17.5872C12.8569 17.5872 12.5515 17.4934 12.5058 17.0465V14.6261V13.2418L11.1469 13.4063C11.5374 13.3473 11.8947 13.1523 12.156 12.8554C12.4174 12.5585 12.5661 12.1787 12.5761 11.7828V11.3359H11.0533V13.4275L10.9597 13.4536V17.3077C10.9591 17.5526 11.0098 17.7948 11.1087 18.0187C11.2075 18.2426 11.3523 18.4431 11.5335 18.6072C11.7147 18.7713 11.9284 18.8952 12.1605 18.971C12.3926 19.0468 12.6381 19.0727 12.8808 19.047C13.3005 19.0477 13.7155 18.9597 14.0989 18.7886L14.1222 17.4256V17.4228Z" fill="#292929"/>
<path d="M14.3565 12.9109L10.0928 13.5688V14.6495L14.3565 13.9916V12.9109ZM14.3565 14.509L10.0928 15.1669V16.201L14.3565 15.5431V14.509ZM19.1361 15.0031C19.1415 14.7383 19.0914 14.4752 18.9891 14.2309C18.8869 13.9866 18.7347 13.7666 18.5423 13.585C18.35 13.4034 18.1219 13.2643 17.8726 13.1766C17.6234 13.089 17.3586 13.0547 17.0953 13.0761C16.7709 13.0662 16.4488 13.1334 16.1553 13.2723C15.8618 13.4112 15.6051 13.6178 15.4064 13.8751C15.008 14.5341 14.7974 15.2899 14.7974 16.0606C14.7974 16.8312 15.008 17.5871 15.4064 18.246C15.6066 18.5002 15.8641 18.7032 16.1577 18.8382C16.4513 18.9732 16.7726 19.0363 17.0953 19.0224C17.359 19.0459 17.6247 19.013 17.8748 18.9261C18.1249 18.8392 18.3539 18.7001 18.5467 18.5181C18.7394 18.3361 18.8916 18.1152 18.9932 17.87C19.0948 17.6248 19.1435 17.3608 19.1361 17.0954V18.9031H20.6589V13.2166L19.1361 13.4516V15.0046V15.0031ZM19.2297 16.062C19.2297 17.1208 18.6667 17.8267 17.8004 17.8267C16.9103 17.8267 16.3712 17.1688 16.3712 16.062C16.3712 14.9551 16.9103 14.2973 17.8004 14.2973C18.0026 14.2916 18.2032 14.3333 18.3865 14.4191C18.5697 14.5048 18.7305 14.6323 18.856 14.7914C19.1152 15.1628 19.2469 15.6088 19.2311 16.062H19.2297ZM25.0866 13.0775C24.8229 13.0541 24.5573 13.0869 24.3071 13.1738C24.057 13.2608 23.828 13.3998 23.6353 13.5818C23.4425 13.7638 23.2903 13.9847 23.1887 14.2299C23.0872 14.4751 23.0385 14.7391 23.0458 15.0046V11.5479L21.523 11.7829V18.9031H23.0458V17.094C23.0385 17.3594 23.0872 17.6234 23.1887 17.8686C23.2903 18.1138 23.4425 18.3347 23.6353 18.5167C23.828 18.6987 24.057 18.8378 24.3071 18.9247C24.5573 19.0116 24.8229 19.0444 25.0866 19.021C26.5158 19.021 27.3828 17.9163 27.3828 16.0599C27.3828 14.2034 26.5158 13.0754 25.0866 13.0754V13.0775ZM24.4075 17.8246C23.5406 17.8246 22.9783 17.1434 22.9783 16.0599C22.9625 15.6067 23.0941 15.1607 23.3534 14.7893C23.4771 14.6282 23.6375 14.4993 23.8212 14.4133C24.0048 14.3273 24.2064 14.2868 24.4089 14.2951C25.2991 14.2951 25.8381 14.953 25.8381 16.0599C25.8381 17.1667 25.2991 17.8246 24.4089 17.8246H24.4075ZM31.5065 13.0775C31.2428 13.0541 30.9771 13.0869 30.727 13.1738C30.4769 13.2608 30.2479 13.3998 30.0551 13.5818C29.8624 13.7638 29.7102 13.9847 29.6086 14.2299C29.5071 14.4751 29.4583 14.7391 29.4657 15.0046V11.5479L27.9429 11.7829V18.9031H29.4657V17.094C29.4583 17.3594 29.5071 17.6234 29.6086 17.8686C29.7102 18.1138 29.8624 18.3347 30.0551 18.5167C30.2479 18.6987 30.4769 18.8378 30.727 18.9247C30.9771 19.0116 31.2428 19.0444 31.5065 19.021C32.9357 19.021 33.8027 17.9163 33.8027 16.0599C33.8027 14.2034 32.9357 13.0754 31.5065 13.0754V13.0775ZM30.8274 17.8246C29.9604 17.8246 29.3982 17.1434 29.3982 16.0599C29.3824 15.6067 29.514 15.1607 29.7733 14.7893C29.897 14.6282 30.0574 14.4993 30.241 14.4133C30.4247 14.3273 30.6263 14.2868 30.8288 14.2951C31.719 14.2951 32.258 14.953 32.258 16.0599C32.258 17.1667 31.719 17.8246 30.8288 17.8246H30.8274ZM33.8027 13.1947H35.4212L36.7329 18.9053H35.2776L33.8027 13.1947ZM40.9249 13.782V13.3337H40.7377V13.242H41.2303V13.3359H41.0431V13.7827L40.9249 13.782ZM41.2528 13.782V13.2173H41.44L41.5336 13.4756C41.5568 13.5462 41.5807 13.5695 41.5807 13.5928C41.5807 13.5695 41.6039 13.5455 41.6278 13.4756L41.7214 13.2173H41.9086V13.782H41.7918V13.3337L41.6278 13.7806H41.511L41.3703 13.3337V13.7806L41.2528 13.782Z" fill="#292929"/>
</g>
<defs>
<clipPath id="clip0_418_1019">
<rect width="38" height="12" fill="white" transform="translate(7 10)"/>
</clipPath>
</defs>
</svg>
