<svg width="17" height="18" viewBox="0 0 17 18" fill="none" xmlns="http://www.w3.org/2000/svg">
<path d="M16.9998 8.81232C16.9799 7.24183 16.4976 5.70956 15.6095 4.39596C14.7215 3.08237 13.4648 2.04215 11.9874 1.39782C10.51 0.753492 8.87352 0.53188 7.27059 0.759086C5.66766 0.986291 4.16508 1.65285 2.93979 2.68027C1.71451 3.70768 0.817553 5.05317 0.35456 6.55826C-0.108432 8.06336 -0.118181 9.66538 0.326463 11.1757C0.771107 12.686 1.65163 14.0416 2.86432 15.083C4.07702 16.1243 5.57139 16.808 7.17144 17.0536V11.2126H5.04638V8.81232H7.17144V6.98894C7.12226 6.56496 7.16967 6.13569 7.31032 5.73142C7.45096 5.32715 7.68141 4.95773 7.98541 4.64925C8.2894 4.34076 8.65953 4.10072 9.06966 3.94608C9.4798 3.79144 9.91994 3.72595 10.359 3.75426C10.9964 3.76272 11.6322 3.81782 12.261 3.91908V5.97939H11.1984C11.0152 5.95699 10.8291 5.97479 10.654 6.03148C10.4788 6.08817 10.319 6.18229 10.1864 6.3069C10.0538 6.43151 9.95176 6.58342 9.88785 6.7514C9.82393 6.91938 9.79977 7.09914 9.81714 7.27739V8.83292H12.176L11.7934 11.2332H9.82776V17.002C11.8359 16.6941 13.6636 15.6986 14.9794 14.196C16.2953 12.6934 17.0121 10.7834 16.9998 8.81232Z" fill="black"/>
</svg>
