<svg width="16" height="16" viewBox="0 0 16 16" fill="none" xmlns="http://www.w3.org/2000/svg">
<path d="M8 0.0259705C5.829 0.0259705 5.556 0.0356064 4.703 0.0722232C3.85 0.110767 3.269 0.239889 2.76 0.430682C2.22584 0.623715 1.74214 0.927318 1.343 1.32008C0.935398 1.70469 0.620326 2.17079 0.42 2.6855C0.222 3.17501 0.087 3.73582 0.048 4.55488C0.01 5.37876 0 5.64086 0 7.73572C0 9.82865 0.01 10.0907 0.048 10.9127C0.088 11.7337 0.222 12.2935 0.42 12.784C0.625 13.2909 0.898 13.7206 1.343 14.1494C1.787 14.5782 2.233 14.8423 2.759 15.0388C3.269 15.2296 3.849 15.3597 4.701 15.3973C5.555 15.4339 5.827 15.4435 8 15.4435C10.173 15.4435 10.444 15.4339 11.298 15.3973C12.149 15.3587 12.732 15.2296 13.241 15.0388C13.7748 14.8457 14.2581 14.5421 14.657 14.1494C15.102 13.7206 15.375 13.2909 15.58 12.784C15.777 12.2935 15.912 11.7337 15.952 10.9127C15.99 10.0907 16 9.82865 16 7.73475C16 5.64085 15.99 5.37876 15.952 4.55584C15.912 3.73582 15.777 3.17501 15.58 2.6855C15.3797 2.17079 15.0646 1.70469 14.657 1.32008C14.2579 0.927318 13.7742 0.623715 13.24 0.430682C12.73 0.239889 12.148 0.109803 11.297 0.0722232C10.443 0.0356064 10.172 0.0259705 7.998 0.0259705H8ZM7.283 1.41548H8.001C10.137 1.41548 10.39 1.42222 11.233 1.4598C12.013 1.49353 12.437 1.61976 12.719 1.72479C13.092 1.86452 13.359 2.03218 13.639 2.30199C13.919 2.5718 14.092 2.82811 14.237 3.1885C14.347 3.45927 14.477 3.86784 14.512 4.61944C14.551 5.43175 14.559 5.67554 14.559 7.73283C14.559 9.79011 14.551 10.0349 14.512 10.8472C14.477 11.5988 14.346 12.0064 14.237 12.2781C14.1078 12.6124 13.9032 12.9149 13.638 13.1637C13.358 13.4335 13.092 13.6002 12.718 13.7399C12.438 13.8459 12.014 13.9712 11.233 14.0058C10.39 14.0425 10.137 14.0511 8.001 14.0511C5.865 14.0511 5.611 14.0425 4.768 14.0058C3.988 13.9712 3.565 13.8459 3.283 13.7399C2.93583 13.6158 2.6216 13.419 2.363 13.1637C2.09727 12.9147 1.89233 12.6119 1.763 12.2772C1.654 12.0064 1.523 11.5978 1.488 10.8462C1.45 10.0339 1.442 9.79011 1.442 7.7309C1.442 5.67169 1.45 5.42983 1.488 4.61751C1.524 3.86591 1.654 3.45734 1.764 3.18561C1.909 2.82619 2.083 2.56891 2.363 2.2991C2.643 2.02929 2.909 1.86259 3.283 1.72287C3.565 1.61687 3.988 1.4916 4.768 1.45691C5.506 1.42415 5.792 1.41452 7.283 1.41355V1.41548ZM12.271 2.69514C12.1449 2.69514 12.0201 2.71906 11.9036 2.76555C11.7872 2.81204 11.6813 2.88018 11.5922 2.96608C11.503 3.05198 11.4323 3.15395 11.3841 3.26619C11.3358 3.37842 11.311 3.49871 11.311 3.62019C11.311 3.74167 11.3358 3.86196 11.3841 3.97419C11.4323 4.08643 11.503 4.1884 11.5922 4.2743C11.6813 4.3602 11.7872 4.42834 11.9036 4.47483C12.0201 4.52132 12.1449 4.54524 12.271 4.54524C12.5256 4.54524 12.7698 4.44778 12.9498 4.2743C13.1299 4.10082 13.231 3.86553 13.231 3.62019C13.231 3.37485 13.1299 3.13956 12.9498 2.96608C12.7698 2.7926 12.5256 2.69514 12.271 2.69514ZM8.001 3.77629C7.45607 3.7681 6.91489 3.86445 6.40898 4.05973C5.90306 4.25501 5.44251 4.54531 5.05415 4.91375C4.66579 5.28218 4.35736 5.72138 4.14684 6.20577C3.93632 6.69017 3.8279 7.21008 3.8279 7.73523C3.8279 8.26039 3.93632 8.7803 4.14684 9.2647C4.35736 9.74909 4.66579 10.1883 5.05415 10.5567C5.44251 10.9252 5.90306 11.2155 6.40898 11.4107C6.91489 11.606 7.45607 11.7024 8.001 11.6942C9.07954 11.678 10.1082 11.2537 10.865 10.513C11.6217 9.77236 12.0459 8.77464 12.0459 7.73523C12.0459 6.69583 11.6217 5.6981 10.865 4.95742C10.1082 4.21674 9.07954 3.79251 8.001 3.77629ZM8.001 5.16484C8.35124 5.16484 8.69804 5.23131 9.02162 5.36046C9.34519 5.48961 9.6392 5.67891 9.88685 5.91755C10.1345 6.15619 10.331 6.43949 10.465 6.75129C10.599 7.06309 10.668 7.39727 10.668 7.73475C10.668 8.07224 10.599 8.40642 10.465 8.71822C10.331 9.03001 10.1345 9.31332 9.88685 9.55196C9.6392 9.7906 9.34519 9.97989 9.02162 10.109C8.69804 10.2382 8.35124 10.3047 8.001 10.3047C7.29367 10.3047 6.61531 10.0339 6.11515 9.55196C5.61499 9.07001 5.334 8.41634 5.334 7.73475C5.334 7.05317 5.61499 6.3995 6.11515 5.91755C6.61531 5.4356 7.29367 5.16484 8.001 5.16484Z" fill="black"/>
</svg>
