<svg width="17" height="17" viewBox="0 0 17 17" fill="none" xmlns="http://www.w3.org/2000/svg">
<path d="M4.37751 13.9494L4.98084 14.2891C5.99829 14.8609 7.1555 15.161 8.33335 15.1587C9.65189 15.1587 10.9408 14.7819 12.0371 14.0761C13.1335 13.3702 13.988 12.3669 14.4925 11.1931C14.9971 10.0192 15.1291 8.7276 14.8719 7.48147C14.6147 6.23534 13.9797 5.09069 13.0474 4.19228C12.115 3.29387 10.9272 2.68204 9.63395 2.43417C8.34074 2.1863 7.0003 2.31352 5.78212 2.79974C4.56395 3.28595 3.52276 4.10933 2.79021 5.16575C2.05767 6.22217 1.66668 7.46418 1.66668 8.73472C1.66425 9.87005 1.97607 10.9855 2.57001 11.966L2.92168 12.5474L2.37751 14.4754L4.37751 13.9494ZM0.00334506 16.7647L1.13001 12.7754C0.387589 11.5491 -0.00244865 10.1544 1.15669e-05 8.73472C1.15669e-05 4.29977 3.73085 0.704742 8.33335 0.704742C12.9358 0.704742 16.6667 4.29977 16.6667 8.73472C16.6667 13.1697 12.9358 16.7647 8.33335 16.7647C6.86066 16.767 5.41389 16.3914 4.14168 15.6766L0.00334506 16.7647ZM5.32584 4.96706C5.43751 4.95903 5.55001 4.95903 5.66168 4.96384C5.70668 4.96706 5.75168 4.97187 5.79668 4.97669C5.92918 4.99115 6.07501 5.06904 6.12418 5.17664C6.37251 5.71947 6.61418 6.26631 6.84751 6.81476C6.89918 6.93681 6.86834 7.0934 6.77001 7.24597C6.72001 7.32386 6.64168 7.43306 6.55085 7.54468C6.45668 7.66112 6.25418 7.87471 6.25418 7.87471C6.25418 7.87471 6.17168 7.96947 6.20334 8.08751C6.21501 8.13248 6.25334 8.19752 6.28834 8.25212L6.33751 8.32841C6.55084 8.67129 6.83751 9.01899 7.18751 9.34661C7.28751 9.43976 7.38501 9.53531 7.49001 9.62445C7.88001 9.95608 8.32168 10.2267 8.79834 10.4274L8.80251 10.4291C8.87334 10.4588 8.90918 10.4748 9.01251 10.5174C9.06418 10.5383 9.11751 10.5559 9.17168 10.5704C9.22765 10.5841 9.2866 10.5815 9.34105 10.5629C9.3955 10.5444 9.44299 10.5106 9.47751 10.466C10.0808 9.76176 10.1358 9.71599 10.1408 9.71599V9.71759C10.1828 9.67992 10.2326 9.65133 10.2869 9.63374C10.3412 9.61615 10.3988 9.60997 10.4558 9.61561C10.5058 9.61882 10.5567 9.62766 10.6033 9.64773C11.0458 9.84286 11.77 10.1472 11.77 10.1472L12.255 10.3568C12.3367 10.3945 12.4108 10.4837 12.4133 10.5696C12.4167 10.6234 12.4217 10.7101 12.4025 10.8691C12.3758 11.0771 12.3108 11.3268 12.2458 11.4577C12.2013 11.547 12.1422 11.6289 12.0708 11.7002C11.9867 11.7853 11.8947 11.8627 11.7958 11.9315C11.7275 11.9812 11.6917 12.0037 11.6917 12.0037C11.588 12.0671 11.4815 12.126 11.3725 12.1804C11.158 12.2902 10.921 12.3533 10.6783 12.3651C10.5242 12.3731 10.37 12.3844 10.215 12.3763C10.2083 12.3763 9.74168 12.3065 9.74168 12.3065C8.55689 12.0062 7.46117 11.4436 6.54168 10.6635C6.35334 10.5037 6.17834 10.3319 6.00001 10.1608C5.26001 9.4502 4.69918 8.68333 4.35834 7.95903C4.18477 7.6037 4.09106 7.21705 4.08334 6.82439C4.08021 6.33677 4.24589 5.86206 4.55418 5.47535C4.61501 5.39987 4.67251 5.32118 4.77168 5.23044C4.87668 5.13408 4.94418 5.08269 5.01668 5.04736C5.11307 5.00081 5.21823 4.9735 5.32584 4.96706Z" fill="black"/>
</svg>
