<svg width="15" height="15" viewBox="0 0 15 15" fill="none" xmlns="http://www.w3.org/2000/svg">
<path d="M12.4688 13.125C11.1667 13.125 9.87771 12.8438 8.60187 12.2812C7.32604 11.7188 6.16708 10.9167 5.125 9.875C4.08292 8.83333 3.28083 7.67708 2.71875 6.40625C2.15667 5.13542 1.87542 3.84375 1.875 2.53125V1.875H5.5625L6.14062 5.01562L4.35938 6.8125C4.58854 7.21875 4.84375 7.60417 5.125 7.96875C5.40625 8.33333 5.70833 8.67188 6.03125 8.98438C6.33333 9.28646 6.66417 9.57562 7.02375 9.85187C7.38333 10.1281 7.77125 10.3858 8.1875 10.625L10 8.8125L13.125 9.45312V13.125H12.4688Z" fill="#030303"/>
</svg>
