<svg width="50" height="32" viewBox="0 0 50 32" fill="none" xmlns="http://www.w3.org/2000/svg">
<path d="M2.55903 0.00488281H47.3351C48.0138 0.00488281 48.6647 0.274589 49.1446 0.754669C49.6246 1.23475 49.8942 1.88588 49.8942 2.56481V29.4398C49.8942 30.1187 49.6246 30.7699 49.1446 31.2499C48.6647 31.73 48.0138 31.9997 47.3351 31.9997H2.55903C1.88033 31.9997 1.22943 31.73 0.749522 31.2499C0.269611 30.7699 0 30.1187 0 29.4398L0 2.56481C0 1.88588 0.269611 1.23475 0.749522 0.754669C1.22943 0.274589 1.88033 0.00488281 2.55903 0.00488281Z" fill="#0E4595"/>
<path d="M18.755 22.3206L20.8893 9.79451H24.3022L22.1662 22.3206H18.755ZM34.4979 10.0637C33.5175 9.70868 32.4819 9.53044 31.4392 9.5373C28.0668 9.5373 25.6909 11.2362 25.6711 13.6714C25.6522 15.4718 27.3668 16.4756 28.6618 17.0743C29.9903 17.6885 30.4366 18.0799 30.4306 18.6278C30.422 19.4674 29.3695 19.851 28.3884 19.851C27.2811 19.8837 26.1814 19.6587 25.1758 19.1938L24.7355 18.9951L24.2566 21.7993C25.4737 22.2487 26.7617 22.475 28.059 22.4677C31.6473 22.4677 33.9759 20.7886 34.0026 18.1883C34.0155 16.7629 33.1057 15.6791 31.1366 14.7845C29.9439 14.2047 29.213 13.8185 29.2207 13.2318C29.2207 12.7114 29.839 12.154 31.1753 12.154C32.0509 12.1346 32.921 12.2981 33.73 12.634L34.0361 12.7785L34.4987 10.0637M43.2816 9.79364H40.6443C40.2736 9.74587 39.8974 9.82181 39.5742 10.0097C39.251 10.1976 38.9987 10.4869 38.8566 10.8328L33.7876 22.312H37.3716C37.3716 22.312 37.9572 20.7688 38.0905 20.4299L42.4622 20.4351C42.5645 20.8738 42.8775 22.312 42.8775 22.312H46.0444L43.2816 9.79364ZM39.0974 17.8794C39.3794 17.1577 40.4577 14.3776 40.4577 14.3776C40.4371 14.4111 40.7381 13.6525 40.91 13.1819L41.1405 14.2623C41.1405 14.2623 41.794 17.2524 41.9307 17.8794H39.0974ZM15.8581 9.79364L12.5165 18.3362L12.1605 16.6003C11.2947 14.3198 9.60782 12.4454 7.43115 11.3454L10.4863 22.3H14.0979L19.4713 9.79708H15.8598" fill="white"/>
<path d="M9.39773 9.79246H3.89444L3.85059 10.0505C8.13197 11.0871 10.9653 13.5928 12.1416 16.6035L10.9447 10.8471C10.8573 10.5139 10.6526 10.2235 10.3682 10.0292C10.0838 9.835 9.73889 9.75001 9.39687 9.78989" fill="#F2AE14"/>
</svg>
