<svg width="21" height="21" viewBox="0 0 21 21" fill="none" xmlns="http://www.w3.org/2000/svg">
<path d="M5.55636 17.2643L6.31053 17.7049C7.58234 18.4466 9.02885 18.836 10.5012 18.833C12.1493 18.833 13.7605 18.3443 15.1309 17.4286C16.5013 16.5129 17.5694 15.2114 18.2001 13.6887C18.8309 12.166 18.9959 10.4904 18.6744 8.87392C18.3528 7.25741 17.5591 5.77256 16.3937 4.60712C15.2283 3.44168 13.7434 2.64801 12.1269 2.32646C10.5104 2.00492 8.83484 2.16995 7.31212 2.80068C5.78941 3.43141 4.48792 4.49951 3.57224 5.86992C2.65656 7.24033 2.16782 8.8515 2.16782 10.4997C2.16478 11.9724 2.55456 13.4194 3.29699 14.6913L3.73657 15.4455L3.05636 17.9465L5.55636 17.2643ZM0.088654 20.9163L1.49699 15.7413C0.568959 14.1506 0.0814118 12.3413 0.0844871 10.4997C0.0844871 4.74655 4.74803 0.0830078 10.5012 0.0830078C16.2543 0.0830078 20.9178 4.74655 20.9178 10.4997C20.9178 16.2528 16.2543 20.9163 10.5012 20.9163C8.6603 20.9193 6.85184 20.4321 5.26157 19.5049L0.088654 20.9163ZM6.74178 5.61217C6.88136 5.60176 7.02199 5.60176 7.16157 5.60801C7.21782 5.61217 7.27407 5.61842 7.33032 5.62467C7.49594 5.64342 7.67824 5.74447 7.7397 5.88405C8.05011 6.58822 8.3522 7.29759 8.64386 8.00905C8.70845 8.16738 8.6699 8.37051 8.54699 8.56842C8.48449 8.66947 8.38657 8.81113 8.27303 8.95592C8.15532 9.10697 7.90219 9.38405 7.90219 9.38405C7.90219 9.38405 7.79907 9.50697 7.83865 9.66009C7.85324 9.71842 7.90115 9.8028 7.9449 9.87363L8.00636 9.97259C8.27303 10.4174 8.63136 10.8684 9.06886 11.2934C9.19386 11.4143 9.31574 11.5382 9.44699 11.6538C9.93449 12.084 10.4866 12.4351 11.0824 12.6955L11.0876 12.6976C11.1762 12.7361 11.2209 12.757 11.3501 12.8122C11.4147 12.8393 11.4814 12.8622 11.5491 12.8809C11.619 12.8987 11.6927 12.8954 11.7608 12.8713C11.8288 12.8472 11.8882 12.8034 11.9314 12.7455C12.6855 11.832 12.7543 11.7726 12.7605 11.7726V11.7747C12.8129 11.7258 12.8752 11.6887 12.9431 11.6659C13.011 11.6431 13.083 11.6351 13.1543 11.6424C13.2168 11.6465 13.2803 11.658 13.3387 11.684C13.8918 11.9372 14.797 12.332 14.797 12.332L15.4032 12.6038C15.5053 12.6528 15.598 12.7684 15.6012 12.8799C15.6053 12.9497 15.6116 13.0622 15.5876 13.2684C15.5543 13.5382 15.473 13.8622 15.3918 14.032C15.3361 14.1478 15.2622 14.254 15.173 14.3465C15.0679 14.4569 14.9528 14.5573 14.8293 14.6465C14.7439 14.7111 14.6991 14.7403 14.6991 14.7403C14.5695 14.8225 14.4364 14.8989 14.3001 14.9695C14.0319 15.1119 13.7357 15.1937 13.4324 15.209C13.2397 15.2195 13.047 15.234 12.8532 15.2236C12.8449 15.2236 12.2616 15.133 12.2616 15.133C10.7806 14.7435 9.41093 14.0137 8.26157 13.0018C8.02615 12.7945 7.8074 12.5715 7.58449 12.3497C6.65949 11.4278 5.95845 10.433 5.5324 9.49342C5.31543 9.03249 5.19829 8.53091 5.18865 8.02155C5.18474 7.38899 5.39184 6.77319 5.7772 6.27155C5.85324 6.17363 5.92511 6.07155 6.04907 5.95384C6.18032 5.82884 6.2647 5.76217 6.35532 5.71634C6.47581 5.65596 6.60726 5.62053 6.74178 5.61217Z" fill="white"/>
</svg>
