<?xml version="1.0" encoding="UTF-8"?>
<svg id="Layer_1" data-name="Layer 1" xmlns="http://www.w3.org/2000/svg" width="298cm" height="270cm" version="1.1" viewBox="0 0 8447.2 7653.5">
  <defs>
    <style>
      .cls-1 {
        fill: #000;
        stroke-width: 0px;
      }
    </style>
  </defs>
  <path class="cls-1" d="M4276.9,3816.3c-.2,1-.3,2.1-.6,3-.8,2.9-2.5,5.2-4.6,7.3-3.6,3.6-7.5,7-11.4,10.3-2.3,2-4.6,3.9-7,5.8-1.3,1.1-2.3,1.1-3.6,0-5.4-4.4-10.7-8.9-15.8-13.6-1.8-1.7-3.7-3.3-5.1-5.4-3.4-5.1-3.9-10.4-.7-15.8,4.7-7.9,15.5-9.1,22.1-2.7.4.4.9.9,1.3,1.4.4-.4.8-.8,1.2-1.2,1.5-1.5,3.3-2.7,5.3-3.4,8.4-3.1,17.7,2.5,18.8,11.3,0,.2,0,.5.1.7v2.3ZM4251.5,3838.4c.2-.1.3-.2.4-.3,3.5-3,7.1-5.9,10.5-9,2.4-2.1,4.8-4.4,7.1-6.7,2.5-2.5,3.5-5.7,2.7-9.2-1.5-7-10-10-15.5-5.4-.9.8-1.8,1.6-2.6,2.5-1.9,2.1-3.3,2.2-5.3,0-.6-.6-1.2-1.2-1.8-1.8-2.2-2.2-4.9-3.1-8-2.8-5.6.6-9.5,6-8.3,11.5.5,2.4,1.8,4.4,3.6,6.1,3.3,3.1,6.6,6.1,10,9.1,2.3,2.1,4.7,4,7.1,6Z"/>
</svg>